<?xml version="1.0" standalone="no"?>
<!DOCTYPE svg PUBLIC "-//W3C//DTD SVG 20010904//EN"
 "http://www.w3.org/TR/2001/REC-SVG-20010904/DTD/svg10.dtd">
<svg version="1.0" xmlns="http://www.w3.org/2000/svg"
 width="620.000000pt" height="620.000000pt" viewBox="0 0 620.000000 620.000000"
 preserveAspectRatio="xMidYMid meet">
<metadata>
Created by potrace 1.14, written by Peter Selinger 2001-2017
</metadata>
<g transform="translate(0.000000,620.000000) scale(0.100000,-0.100000)"
fill="#000000" stroke="none">
<path d="M2957 4579 c-10 -6 -30 -8 -45 -4 -30 6 -209 -28 -225 -44 -5 -5 -7
-17 -3 -27 5 -14 15 -16 64 -9 31 4 99 10 150 14 l93 6 -6 -50 c-4 -27 -10
-53 -14 -57 -3 -4 -25 -2 -49 4 -31 8 -50 8 -67 0 -27 -12 -29 -27 -45 -287
-5 -88 -14 -170 -20 -183 -5 -12 -13 -118 -16 -235 -6 -192 -4 -224 16 -341
14 -83 20 -141 15 -165 -4 -20 -9 -52 -11 -71 -4 -44 -14 -118 -20 -147 -4
-23 -29 -32 -36 -14 -1 5 -19 12 -39 16 -34 6 -38 4 -68 -36 -34 -47 -91 -185
-91 -222 0 -34 65 -117 92 -117 16 0 7 15 -32 59 -22 24 -36 49 -33 55 22 37
60 76 75 76 19 0 32 -32 23 -59 -4 -13 2 -26 15 -39 18 -17 20 -24 11 -41 -15
-27 -1 -49 58 -89 62 -42 133 -44 112 -3 -5 9 -11 46 -14 83 -4 61 -3 68 15
74 11 3 24 2 29 -3 5 -5 12 -64 16 -131 6 -121 6 -122 -16 -122 -12 0 -34 6
-49 14 -15 7 -47 16 -70 20 -67 10 -48 -15 29 -37 126 -38 120 -34 115 -86 -3
-41 -6 -46 -27 -43 -39 6 -123 47 -171 84 -126 96 -222 193 -253 254 -25 50
-27 61 -22 127 8 90 55 190 126 266 92 98 147 118 173 61 16 -37 38 -39 38 -4
0 83 -102 134 -165 82 -60 -50 -87 -87 -135 -183 -61 -124 -85 -203 -85 -280
0 -52 5 -67 36 -112 37 -55 115 -128 243 -228 71 -56 90 -85 66 -100 -5 -3
-30 -37 -54 -74 -63 -98 -71 -99 -63 -13 4 38 9 76 12 84 3 7 0 20 -5 28 -14
23 -39 -7 -46 -56 -3 -21 -9 -55 -15 -74 -19 -70 -28 -203 -16 -252 6 -27 8
-51 4 -54 -11 -11 -76 37 -126 94 -43 48 -53 55 -68 46 -11 -7 -20 -29 -24
-55 -3 -24 -7 -38 -7 -31 -1 8 -11 27 -22 43 -12 15 -28 52 -37 81 -8 29 -20
56 -26 60 -19 12 -37 -4 -37 -33 0 -22 -6 -32 -23 -38 -13 -5 -44 -32 -70 -61
l-46 -51 -6 35 c-4 19 -1 59 6 90 16 73 6 86 -47 61 -31 -14 -54 -17 -128 -12
-76 5 -183 31 -201 48 -2 3 16 11 40 18 33 10 45 18 45 32 0 14 -7 19 -30 19
-16 0 -39 4 -52 9 -13 5 -48 16 -79 25 -53 15 -149 84 -149 106 0 8 23 21 80
44 87 36 234 151 265 207 14 26 25 49 25 53 0 19 -35 0 -84 -45 -30 -28 -60
-48 -65 -45 -10 7 14 104 30 120 5 6 9 22 9 37 0 29 -31 59 -60 59 -8 0 -42
18 -75 40 -33 22 -79 53 -103 68 -58 38 -162 182 -162 223 0 4 21 9 48 11 38
2 48 7 50 23 2 14 -8 26 -34 40 -21 11 -51 37 -68 58 -27 34 -28 39 -14 53 9
9 33 20 55 25 130 29 167 39 206 58 24 12 48 21 54 21 19 0 97 68 114 102 10
18 18 45 19 60 1 92 193 477 284 571 60 63 245 168 421 242 17 7 41 17 55 23
14 6 49 18 78 28 36 12 52 23 52 35 0 22 -33 33 -57 20 -10 -5 -39 -13 -65
-16 -25 -3 -52 -13 -58 -20 -7 -8 -17 -15 -22 -15 -16 0 -152 -69 -213 -109
-33 -22 -66 -40 -72 -40 -7 -1 -13 -5 -13 -10 0 -14 -135 -111 -154 -111 -10
0 -27 -24 -46 -67 -16 -38 -34 -75 -40 -83 -22 -31 -150 -299 -150 -313 0 -42
-78 -167 -104 -167 -8 0 -36 -18 -61 -40 -25 -22 -50 -40 -55 -40 -5 0 -36
-16 -68 -35 -33 -19 -97 -47 -142 -61 -45 -15 -84 -33 -87 -40 -9 -25 6 -60
42 -97 42 -43 44 -51 8 -43 -28 8 -43 -5 -43 -36 0 -30 97 -181 150 -233 28
-27 57 -57 66 -66 8 -9 29 -20 47 -23 33 -7 107 -71 107 -93 0 -7 6 -12 13
-11 16 4 19 -56 5 -102 -8 -25 -8 -35 1 -38 17 -6 -27 -78 -66 -108 -18 -14
-48 -28 -66 -31 -28 -4 -33 -2 -34 18 -1 12 -8 26 -15 30 -10 7 -10 12 -1 28
10 15 9 22 -2 31 -18 15 -27 -1 -27 -55 -1 -42 -2 -44 -40 -53 -34 -9 -39 -8
-37 6 3 35 -14 82 -36 96 -24 16 -89 12 -112 -6 -8 -6 -25 -6 -47 2 -46 15
-142 4 -151 -17 -6 -18 21 -42 48 -43 9 0 17 -7 17 -17 0 -15 1 -15 18 0 25
23 35 21 71 -9 32 -27 56 -24 48 6 -7 27 5 39 36 33 34 -7 44 -26 28 -57 -8
-14 -10 -43 -5 -86 13 -127 11 -155 -11 -155 -11 0 -25 -7 -32 -15 -10 -12
-12 -9 -13 22 l0 36 -30 -14 c-29 -15 -29 -16 -14 -40 9 -13 23 -24 30 -24 8
0 14 -10 14 -25 0 -14 -4 -25 -10 -25 -5 0 -10 6 -10 14 0 9 -7 12 -20 9 -15
-4 -20 0 -20 14 0 27 -9 34 -30 21 -19 -12 -16 -37 8 -51 9 -6 12 -18 8 -33
-5 -17 -2 -24 8 -24 8 0 17 8 19 18 4 15 5 15 6 0 0 -9 -3 -20 -9 -23 -6 -3
-10 -15 -10 -25 0 -24 -17 -35 -34 -21 -10 8 -27 9 -56 2 -45 -10 -60 -23 -60
-54 0 -21 -25 -72 -51 -105 -23 -30 -49 -118 -60 -206 -5 -39 -13 -74 -17 -78
-13 -13 -42 2 -42 23 0 10 -11 30 -23 45 l-24 27 -6 -25 c-9 -34 -21 -37 -92
-26 -46 7 -65 15 -81 35 -21 26 -44 25 -44 -2 0 -8 -5 -25 -11 -39 l-12 -25
-33 33 c-38 37 -38 40 -35 343 2 146 4 164 22 187 17 21 24 24 35 15 8 -6 22
-8 31 -5 11 5 13 10 7 14 -6 4 -14 19 -18 35 -3 15 -12 27 -19 27 -22 0 -67
67 -68 102 0 18 -4 42 -9 53 -9 21 -9 22 -14 -51 -1 -22 -12 -54 -24 -71 -25
-36 -28 -53 -8 -53 7 0 16 -10 20 -23 10 -37 7 -195 -4 -202 -14 -9 -12 -57 3
-77 14 -18 7 -140 -12 -208 -7 -24 -7 -48 0 -75 6 -22 12 -56 13 -75 1 -25 22
-67 70 -140 81 -124 178 -259 187 -260 4 0 9 10 12 21 5 18 10 20 34 14 15 -4
51 -8 78 -9 44 -1 50 -4 53 -24 2 -13 -1 -28 -6 -35 -5 -7 -21 -34 -36 -60
l-26 -48 131 -130 c72 -71 134 -127 138 -123 3 3 -15 25 -40 48 -69 62 -159
174 -159 197 0 28 40 79 63 79 22 0 144 100 167 136 10 16 11 27 4 34 -7 7
-25 -4 -58 -35 -27 -25 -51 -45 -55 -45 -24 0 -52 142 -51 250 2 129 37 327
73 413 13 31 20 37 39 33 58 -13 180 -27 186 -22 12 13 -18 28 -65 33 -66 6
-103 22 -103 43 0 10 -3 25 -6 34 -5 12 0 16 17 16 39 0 171 -36 218 -59 48
-22 76 -27 85 -12 11 17 308 37 466 32 47 -2 108 -4 135 -4 50 -1 65 -9 65
-37 0 -13 -31 -15 -212 -16 -220 0 -365 -13 -455 -40 -29 -9 -56 -13 -61 -10
-5 3 -18 -2 -28 -10 -17 -14 -11 -15 68 -10 48 3 98 10 110 17 16 9 111 13
322 15 l298 3 15 28 c8 15 24 38 35 50 19 21 23 21 38 8 10 -9 36 -15 61 -15
39 0 82 -18 99 -40 12 -16 89 -58 134 -73 108 -37 111 -11 4 33 -65 27 -90 52
-71 71 8 8 24 1 62 -26 29 -20 63 -40 77 -45 13 -5 28 -20 33 -34 9 -21 59
-66 75 -66 3 0 34 -20 69 -44 34 -23 77 -51 94 -60 31 -16 32 -18 26 -64 -3
-26 -10 -56 -16 -66 -7 -15 -5 -23 9 -33 26 -19 35 -17 103 29 l62 41 24 -23
c14 -13 27 -31 30 -41 6 -18 35 -35 35 -20 0 4 -14 29 -31 54 -23 35 -29 54
-25 72 4 14 11 25 17 25 6 0 43 -33 82 -74 66 -67 76 -74 122 -80 73 -9 205
-57 216 -78 7 -14 1 -37 -27 -96 -49 -103 -79 -142 -109 -142 -23 0 -134 47
-145 61 -3 4 -14 8 -24 10 -27 5 -33 29 -7 29 11 0 23 -5 26 -11 4 -5 12 -8
18 -6 7 2 32 -2 57 -9 51 -16 70 -17 70 -6 0 13 -73 42 -145 58 -117 26 -149
28 -163 11 -11 -13 -7 -24 22 -69 45 -67 74 -159 86 -268 6 -47 18 -127 27
-178 16 -88 16 -96 0 -142 -55 -154 49 -304 114 -165 25 53 31 163 11 188 -9
10 -10 21 -4 34 24 47 73 213 103 351 12 56 24 100 27 97 7 -6 -1 -435 -9
-525 -1 -8 -8 -116 -16 -240 -8 -124 -17 -255 -20 -292 l-5 -68 49 6 c26 4 50
8 52 10 2 2 -1 34 -7 71 -24 139 -27 180 -19 263 4 47 13 195 20 330 7 141 16
244 21 243 22 -5 40 -119 60 -366 4 -50 29 -133 57 -189 12 -24 59 -225 66
-281 4 -36 9 -47 20 -43 8 4 19 6 25 6 6 0 7 12 3 30 -4 19 -2 36 5 46 10 11
10 18 -4 32 -20 23 -20 41 0 64 12 12 14 21 6 30 -6 8 -10 97 -11 228 0 118
-1 226 -2 240 0 14 1 63 4 110 2 58 -1 94 -10 112 -8 18 -10 35 -4 50 5 13 9
61 10 108 2 96 9 108 67 106 66 -2 73 -24 74 -221 0 -93 1 -186 1 -205 0 -19
1 -48 1 -65 0 -16 -2 -62 -6 -100 -3 -39 -2 -94 3 -121 4 -29 4 -61 -2 -75
-12 -32 -10 -110 3 -123 13 -13 13 -63 -1 -71 -5 -4 -7 -19 -4 -34 4 -18 1
-32 -9 -40 -18 -15 -7 -65 16 -69 8 -2 25 6 38 16 l23 19 -22 22 c-20 20 -20
23 -5 46 38 58 114 12 85 -51 -10 -24 -10 -26 6 -20 10 4 37 12 61 19 23 6 42
16 42 23 0 6 7 26 16 43 10 21 14 45 11 67 -5 29 -1 41 25 69 27 31 35 35 82
35 64 0 78 9 74 46 -3 30 17 42 49 30 13 -5 14 -9 5 -18 -7 -7 -12 -16 -12
-20 0 -14 37 -9 50 7 16 19 79 19 99 0 9 -9 32 -26 52 -39 l36 -23 46 23 c44
23 68 44 49 44 -5 0 -12 8 -15 19 -4 16 -19 19 -108 26 -57 4 -115 13 -129 20
-14 7 -33 16 -42 19 -22 6 -24 45 -4 71 10 14 27 19 71 19 55 1 81 15 56 31
-16 9 -13 51 4 65 20 16 14 24 -41 49 -32 15 -50 31 -57 52 -6 16 -15 29 -18
29 -4 0 -10 18 -14 40 -4 25 -12 40 -21 40 -8 0 -14 10 -14 24 0 17 -9 29 -27
38 -41 19 -44 64 -6 79 42 17 79 18 107 4 13 -7 27 -11 29 -9 2 3 43 9 90 14
101 12 137 3 137 -34 0 -21 18 -37 45 -40 6 -1 9 -16 7 -34 -1 -17 2 -32 8
-32 24 0 32 46 29 160 -3 87 -1 121 9 133 12 14 11 20 -2 39 -9 12 -16 33 -16
45 0 26 -18 31 -26 8 -4 -8 -11 -15 -18 -15 -15 1 -56 36 -56 49 0 6 -7 11
-16 11 -10 0 -14 -6 -11 -14 3 -8 -1 -17 -9 -20 -8 -3 -14 -1 -14 4 0 6 -4 10
-10 10 -5 0 -10 -7 -10 -15 0 -8 -7 -15 -15 -15 -9 0 -18 -7 -21 -15 -8 -19
-48 -20 -63 -2 -6 8 -24 14 -41 15 -41 1 -52 10 -49 40 2 15 -1 33 -5 41 -5 7
-9 77 -10 155 l0 141 -24 -23 c-17 -18 -20 -27 -12 -37 7 -8 7 -21 1 -37 -6
-16 -5 -31 3 -47 10 -17 10 -33 2 -62 -8 -30 -7 -45 2 -59 16 -27 16 -90 -1
-90 -7 0 -18 5 -25 12 -9 9 -12 9 -12 -3 0 -9 -7 -16 -15 -16 -10 0 -13 7 -9
23 8 30 -12 40 -26 13 -11 -19 -12 -20 -25 -3 -12 17 -13 17 -26 -4 -20 -32
-29 -27 -29 17 0 40 -14 62 -23 39 -4 -10 -6 -10 -6 -1 -1 7 -7 11 -13 9 -7
-3 -27 -7 -45 -10 -27 -4 -31 -3 -26 12 5 14 3 13 -9 -2 -15 -19 -16 -20 -44
-1 -16 10 -36 28 -45 39 -14 18 -19 18 -33 7 -15 -13 -17 -11 -15 20 1 19 -1
46 -5 60 -6 23 -2 31 35 60 24 19 44 29 46 22 4 -10 65 37 100 77 42 47 71 88
77 108 7 22 9 22 35 -15 51 -70 97 -113 120 -113 36 0 37 28 3 90 -18 32 -32
66 -32 77 0 10 -5 24 -12 31 -7 7 -12 55 -14 129 l-2 117 32 31 c62 58 117
155 87 155 -5 0 -28 -26 -51 -57 -69 -92 -144 -157 -311 -269 l-156 -104 -73
0 c-67 0 -123 10 -232 42 -50 15 -65 6 -88 -47 -11 -25 -24 -45 -29 -45 -6 0
-40 20 -76 44 -43 29 -73 42 -86 39 -18 -5 -19 -2 -15 33 3 22 8 98 11 169 6
139 22 252 36 260 5 3 21 -1 36 -9 15 -7 42 -16 58 -17 30 -4 30 -3 27 39 -1
23 2 42 8 42 5 0 10 -3 10 -7 0 -8 82 -63 94 -63 10 0 7 85 -3 96 -5 5 -12 35
-16 67 -6 49 -5 57 9 57 9 0 16 7 16 15 0 8 9 15 20 15 34 0 22 16 -20 29 -29
9 -40 17 -40 31 0 25 20 25 73 1 64 -29 101 -37 95 -20 -2 8 -22 19 -44 25
-21 5 -50 15 -64 21 -14 6 -33 14 -43 17 -19 6 -33 33 -23 43 3 3 14 -1 23 -9
10 -9 29 -18 43 -21 14 -3 59 -14 100 -26 41 -11 81 -21 88 -21 18 0 15 17 -5
23 -112 35 -153 56 -153 78 0 10 -9 24 -21 32 -20 15 -19 17 60 178 45 89 81
170 81 180 0 23 25 31 56 17 25 -12 26 -15 21 -68 -3 -30 -10 -75 -16 -100
-14 -62 -14 -213 1 -245 13 -28 39 -33 58 -10 13 15 49 207 50 263 0 40 27 95
41 86 6 -3 14 -17 19 -30 l10 -24 32 20 c41 25 54 25 61 1 10 -39 121 -30 196
16 l49 31 -5 -56 c-3 -32 -9 -61 -14 -66 -5 -6 -9 -25 -9 -42 0 -18 -4 -44
-10 -59 -14 -37 5 -164 28 -182 9 -8 40 -25 68 -38 68 -31 71 -47 49 -227 -4
-30 -2 -38 10 -38 9 0 17 6 19 12 2 7 9 33 16 58 7 25 19 64 27 87 8 23 15 52
15 65 1 13 11 37 23 53 37 52 75 127 75 148 0 11 3 17 6 14 4 -3 7 -37 8 -74
1 -86 15 -90 84 -25 43 41 64 75 122 195 39 80 70 152 70 159 0 7 6 25 14 40
8 14 17 45 21 68 4 23 13 53 20 66 16 31 24 20 49 -61 10 -33 22 -69 26 -80
14 -34 33 -156 39 -250 5 -82 8 -90 27 -93 34 -5 78 57 97 137 28 115 18 290
-24 396 -4 11 -20 56 -35 100 -14 44 -45 114 -67 155 -22 41 -51 95 -64 119
-12 24 -34 58 -48 77 -14 18 -25 36 -25 39 0 4 -22 35 -50 70 -28 35 -50 66
-50 70 0 4 -20 30 -44 58 -55 65 -146 204 -147 226 -1 9 -2 48 -3 87 -2 106
-1 105 -170 99 -77 -3 -158 -8 -179 -10 -23 -3 -46 0 -60 9 -12 8 -41 18 -64
22 l-43 7 0 47 c0 34 -4 50 -16 54 -26 10 -241 7 -269 -4 -32 -12 -258 -16
-375 -6 -95 7 -114 10 -185 27 -69 16 -256 22 -278 8z m614 -97 c15 -6 29 -17
32 -25 10 -26 56 -30 95 -7 66 39 292 66 320 38 18 -18 16 -174 -2 -181 -7 -3
-16 -18 -19 -34 -3 -15 -13 -59 -22 -98 -9 -38 -25 -106 -35 -150 -25 -115
-47 -195 -86 -320 -19 -60 -44 -139 -55 -175 -19 -62 -33 -103 -96 -272 -57
-158 -196 -438 -216 -438 -19 0 -16 380 4 450 2 9 -2 15 -11 15 -12 0 -18 -24
-28 -105 -18 -135 -26 -474 -14 -520 22 -79 35 -137 40 -173 2 -20 8 -40 13
-43 12 -7 12 -34 0 -34 -5 0 -34 22 -64 50 -44 40 -57 47 -66 37 -7 -9 -8 -24
-1 -48 14 -48 13 -59 -7 -59 -23 0 -123 61 -123 75 0 6 -14 24 -31 41 -34 32
-99 137 -99 159 0 16 -49 75 -50 60 0 -6 18 -62 40 -124 39 -111 68 -171 81
-171 4 0 9 -15 12 -32 2 -18 13 -58 23 -88 23 -71 25 -318 2 -430 -16 -83 -47
-163 -55 -142 -3 8 0 19 6 25 15 15 14 59 -3 82 -18 25 -46 13 -46 -20 0 -29
-11 -51 -58 -115 -44 -59 -151 -170 -164 -170 -7 0 -8 12 -4 33 12 56 46 320
46 358 0 19 5 40 10 45 7 7 13 114 16 275 5 251 0 360 -25 469 -8 40 -7 48 12
68 24 26 42 28 51 6 9 -23 26 -7 26 26 0 70 -23 77 -68 21 -40 -50 -170 -137
-184 -123 -7 7 -4 36 11 89 11 44 21 92 21 108 0 16 4 42 9 59 21 72 44 175
52 236 5 36 11 83 15 105 5 33 4 38 -7 28 -26 -26 -26 -28 -50 162 -18 143
-22 265 -11 338 6 40 16 115 22 167 19 160 50 310 63 310 4 0 25 11 45 25 20
14 49 25 64 25 27 0 27 1 21 50 -6 50 -6 50 23 50 16 0 45 4 64 10 19 5 75 11
124 14 48 3 90 6 91 8 7 7 222 -10 246 -20z m631 -112 c45 -20 49 -20 140 -4
162 27 164 27 180 10 19 -19 68 -180 68 -224 0 -45 54 -131 170 -266 69 -80
160 -212 160 -230 0 -4 11 -22 24 -39 22 -30 70 -126 109 -222 48 -118 75
-318 57 -413 -14 -67 -25 -78 -33 -34 -24 129 -68 260 -131 392 -14 30 -26 62
-26 71 0 18 -19 39 -37 39 -10 0 -13 -23 -13 -90 0 -62 -7 -113 -21 -163 -11
-39 -24 -86 -28 -102 -10 -41 -104 -223 -142 -274 -50 -69 -59 -58 -59 72 0
112 -11 156 -36 139 -5 -4 -16 -43 -22 -86 -20 -133 -86 -246 -141 -246 -15 1
-50 19 -81 43 -49 39 -55 47 -58 85 -3 33 1 44 15 49 27 9 53 34 47 44 -3 5
-18 9 -35 9 -24 0 -29 4 -29 24 0 28 22 49 43 40 21 -8 107 110 131 179 12 37
26 58 47 69 18 11 41 41 61 82 47 96 54 91 66 -49 7 -86 8 -90 31 -90 13 0 27
7 31 15 4 8 12 25 19 38 6 12 17 58 23 102 23 166 -32 363 -148 525 -23 34
-52 69 -63 79 -19 18 -21 30 -21 153 0 74 -5 143 -10 154 -19 34 -57 23 -122
-33 -33 -28 -64 -62 -69 -75 -11 -30 -25 -29 -33 1 -10 39 -31 53 -91 61 -50
6 -57 10 -69 38 -7 18 -23 41 -35 51 -24 22 -27 63 -6 93 13 18 20 20 52 12
21 -4 59 -17 85 -29z m-142 -112 c8 -13 20 -36 26 -53 10 -28 15 -30 67 -33
55 -3 57 -4 88 -52 23 -35 43 -53 78 -68 51 -22 201 -147 201 -168 0 -8 4 -14
8 -14 10 0 83 -105 104 -150 32 -70 38 -86 53 -135 20 -67 20 -260 0 -295 -14
-25 -14 -25 -15 -2 0 12 -4 30 -9 40 -5 9 -17 43 -26 75 -18 56 -39 86 -52 73
-3 -3 -15 -29 -25 -58 -10 -28 -21 -55 -26 -60 -4 -4 -8 61 -8 145 0 159 -4
178 -57 297 -13 30 -27 63 -30 73 -6 15 -37 25 -37 12 0 -3 15 -40 34 -83 18
-42 39 -97 46 -122 6 -25 16 -61 22 -82 25 -86 -23 -313 -95 -457 -40 -79 -57
-88 -57 -30 0 47 -19 119 -32 119 -4 0 -8 -4 -8 -9 0 -4 -19 -30 -42 -56 -40
-45 -126 -95 -164 -95 -20 0 -29 27 -14 45 11 14 70 132 70 141 0 16 -41 -2
-69 -31 -19 -20 -36 -33 -38 -31 -3 2 3 54 13 115 16 101 16 112 2 123 -35 28
-45 131 -19 191 34 79 12 75 -26 -4 -48 -98 -233 -292 -233 -243 0 3 18 59 39
123 54 160 84 259 116 376 14 55 31 116 36 135 10 35 21 91 41 208 5 34 13 62
17 62 3 0 13 -10 21 -22z m-43 -793 c-5 -13 -11 -14 -27 -5 -22 12 -27 36 -7
43 18 7 41 -19 34 -38z m23 -80 c10 -19 11 -33 2 -62 -6 -21 -14 -57 -17 -80
-6 -51 -24 -93 -39 -93 -27 0 -56 31 -50 54 7 30 -22 55 -77 64 l-44 8 34 12
c36 13 104 2 116 -18 4 -6 11 -8 16 -4 16 9 -16 39 -64 60 -23 10 -44 19 -46
21 -3 2 8 17 24 33 25 26 36 30 80 30 45 0 53 -3 65 -25z m-185 -247 c-3 -13
-13 -84 -21 -158 -16 -156 -26 -207 -39 -200 -25 13 -3 307 26 361 15 28 43
25 34 -3z m225 2 c0 -5 -5 -10 -11 -10 -5 0 -7 5 -4 10 3 6 8 10 11 10 2 0 4
-4 4 -10z m-2682 -834 c12 -11 22 -23 22 -27 0 -14 -58 -40 -65 -29 -10 16 4
30 22 23 11 -4 14 -2 11 8 -3 8 -15 13 -27 12 -17 -2 -21 2 -21 28 0 34 2 34
58 -15z m1445 -7 c18 -8 30 -8 46 0 21 12 21 11 21 -93 0 -82 -3 -105 -15
-109 -8 -4 -17 -2 -21 4 -3 6 -16 15 -27 20 -30 13 -57 30 -91 55 -26 19 -27
23 -16 45 20 36 61 89 71 89 4 0 19 -5 32 -11z m-1218 -69 c34 -13 23 -30 -21
-30 -40 0 -42 -9 -11 -38 47 -45 199 -82 333 -82 l96 0 -7 -42 c-4 -24 -8 -44
-9 -45 -3 -3 -54 -3 -111 0 -27 2 -108 0 -180 -4 -71 -4 -175 -10 -230 -14
-55 -3 -107 -6 -115 -7 -14 -2 -116 17 -148 27 -18 6 -4 28 60 95 77 81 122
108 193 116 33 4 65 10 70 14 6 4 19 10 30 13 11 2 21 5 22 6 1 0 14 -3 28 -9z
m-365 -49 c0 -12 -20 -25 -27 -18 -7 7 6 27 18 27 5 0 9 -4 9 -9z m2931 -128
c3 -16 8 -50 19 -118 5 -38 17 -87 25 -108 18 -44 19 -57 5 -57 -14 0 -70 101
-70 128 0 14 -5 22 -12 20 -13 -5 -13 -5 -54 -97 -36 -80 -90 -143 -104 -121
-5 8 -10 18 -10 23 0 21 -24 1 -51 -44 -17 -27 -33 -48 -35 -46 -7 6 21 129
34 154 7 12 12 35 12 52 0 16 5 33 10 36 6 3 10 14 10 23 0 11 35 40 91 77 50
33 95 65 101 72 12 14 27 17 29 6z m-641 -208 c0 -8 7 -15 15 -15 8 0 15 7 15
16 0 8 5 12 11 8 6 -3 9 -17 6 -30 -3 -17 3 -28 19 -39 29 -19 44 -19 44 0 0
8 -7 15 -15 15 -8 0 -15 6 -15 14 0 8 -6 16 -12 19 -7 2 32 2 87 0 119 -5 150
-19 140 -63 -4 -16 -2 -31 5 -35 5 -3 8 -11 4 -16 -8 -14 -18 -138 -14 -184 2
-22 3 -58 2 -80 -1 -22 -2 -69 -3 -105 0 -36 -7 -77 -15 -92 -15 -28 -47 -37
-59 -17 -4 5 -14 9 -23 7 -10 -2 -26 5 -37 15 -16 15 -17 21 -7 37 7 11 22 50
34 87 l22 66 -64 59 c-48 45 -61 61 -52 70 9 9 12 7 12 -11 l0 -23 18 22 c15
19 17 32 10 87 -9 77 -10 78 -53 99 -19 9 -35 22 -35 30 0 23 -21 27 -27 5 -6
-25 -6 -25 -43 -6 -32 17 -35 22 -21 44 7 11 10 9 16 -8 7 -22 20 -27 29 -12
3 5 -1 14 -9 21 -19 16 -19 30 0 30 8 0 15 -7 15 -15z m344 -33 c-11 -16 -19
-22 -22 -14 -2 7 4 25 14 40 11 16 19 22 22 14 2 -7 -4 -25 -14 -40z m-1204 7
c43 -26 142 -100 152 -114 15 -20 7 -26 -24 -20 -41 8 -95 32 -103 45 -4 6
-24 19 -46 31 -45 23 -57 42 -39 64 16 19 18 19 60 -6z m1190 -65 c0 -14 -4
-23 -9 -20 -5 3 -7 15 -4 26 7 28 13 25 13 -6z m-278 -29 c3 -14 1 -25 -6 -25
-6 0 -22 -3 -36 -6 -23 -5 -24 -4 -7 9 10 9 15 21 11 31 -4 11 -1 16 14 16 13
0 21 -8 24 -25z m11 -41 c9 -10 -35 -42 -50 -37 -9 4 -6 11 10 24 24 20 31 22
40 13z m-80 -44 c-3 -11 -7 -20 -9 -20 -2 0 -4 9 -4 20 0 11 4 20 9 20 5 0 7
-9 4 -20z m87 -61 c0 -5 -4 -9 -10 -9 -5 0 -10 7 -10 16 0 8 5 12 10 9 6 -3
10 -10 10 -16z m-2832 -28 c9 -5 11 -17 6 -34 -10 -41 3 -74 31 -81 15 -4 27
-16 31 -32 7 -28 0 -111 -11 -122 -3 -4 -27 -7 -53 -7 -26 -1 -59 -7 -74 -14
-37 -19 -78 6 -78 48 0 32 19 51 64 66 41 13 45 45 12 79 -33 32 -33 59 0 85
28 22 51 26 72 12z m2772 -59 c0 -15 5 -33 11 -39 6 -6 15 -40 19 -75 4 -35
11 -74 16 -87 5 -16 4 -22 -4 -17 -6 3 -16 32 -23 64 -6 31 -18 79 -25 106
-17 59 -17 76 -4 76 6 0 10 -13 10 -28z m67 -14 c6 -19 15 -68 18 -109 13
-132 -21 -55 -52 120 -8 46 18 38 34 -11z m-97 -44 c0 -8 -4 -14 -10 -14 -5 0
-10 8 -10 18 0 9 -3 28 -6 42 -5 23 -5 23 10 -4 9 -15 16 -35 16 -42z m154
-16 c4 -24 3 -38 -4 -38 -5 0 -10 19 -10 42 0 49 5 47 14 -4z m-124 -104 c0
-14 -12 -19 -23 -8 -9 9 4 35 14 28 5 -3 9 -12 9 -20z m-482 -62 c-2 -8 -8
-17 -14 -19 -13 -4 -27 24 -19 37 9 14 36 -1 33 -18z m37 8 c3 -5 1 -10 -4
-10 -6 0 -11 5 -11 10 0 6 2 10 4 10 3 0 8 -4 11 -10z m543 -65 c7 -3 12 -24
12 -59 0 -42 -4 -57 -17 -65 -15 -8 -16 -13 -5 -30 15 -26 8 -27 -17 -2 -23
23 -67 22 -65 -2 3 -27 -15 -20 -26 11 -6 15 -15 35 -20 44 -11 20 -13 78 -4
102 5 13 17 15 68 10 33 -3 67 -7 74 -9z m-522 -72 c15 -32 35 -92 45 -133 20
-83 25 -215 8 -225 -19 -12 -21 -7 -44 180 -20 158 -27 195 -36 201 -9 5 -13
34 -5 34 3 0 17 -26 32 -57z m201 -85 c-8 -72 -46 -218 -67 -256 l-19 -37 0
40 c0 22 4 58 9 80 5 22 14 62 19 89 6 27 15 54 20 60 4 6 11 23 15 39 11 44
29 33 23 -15z m327 -84 c9 -22 -4 -85 -15 -78 -12 7 -12 94 0 94 5 0 12 -7 15
-16z m610 -83 c4 -5 -15 -19 -40 -31 -38 -19 -48 -20 -55 -9 -13 21 -11 24 19
36 35 14 69 16 76 4z m-614 -101 c0 -5 -4 -10 -10 -10 -5 0 -10 5 -10 10 0 6
5 10 10 10 6 0 10 -4 10 -10z m-430 -55 c0 -9 -6 -12 -15 -9 -8 4 -15 10 -15
15 0 5 7 9 15 9 8 0 15 -7 15 -15z m427 -132 c-4 -17 -4 -17 -12 0 -4 9 -4 25
0 35 8 16 8 16 12 0 3 -10 3 -26 0 -35z m599 5 c4 -6 -7 -23 -27 -39 -30 -25
-33 -30 -21 -49 17 -28 -5 -36 -53 -20 -34 11 -36 14 -33 48 2 28 8 38 23 41
11 2 24 9 28 17 10 17 73 19 83 2z m-1025 -73 c5 4 9 -3 9 -15 0 -25 -17 -60
-29 -60 -13 0 -31 48 -31 82 l0 32 21 -22 c11 -12 24 -20 30 -17z m408 -32
c18 -16 22 -32 26 -130 6 -118 -7 -156 -20 -60 -4 28 -11 57 -15 62 -4 6 -10
28 -13 50 -4 22 -9 52 -13 68 -7 31 4 35 35 10z m521 -49 c0 -10 -7 -14 -22
-12 -32 5 -35 28 -4 28 17 0 26 -5 26 -16z m-150 -189 c0 -17 -2 -18 -24 -9
-23 9 -20 24 4 24 11 0 20 -7 20 -15z"/>
<path d="M3575 3848 c-2 -13 -9 -45 -14 -73 -10 -48 -15 -71 -61 -239 -25 -95
-18 -136 11 -61 10 28 19 60 19 71 0 12 7 37 15 56 11 27 65 246 65 264 0 2
-7 4 -15 4 -8 0 -17 -10 -20 -22z"/>
<path d="M2905 3503 c-4 -27 -11 -56 -17 -66 -5 -10 -8 -30 -5 -45 l3 -27 16
35 c20 44 34 150 20 150 -5 0 -13 -21 -17 -47z"/>
<path d="M4350 3950 c0 -5 5 -10 10 -10 6 0 10 5 10 10 0 6 -4 10 -10 10 -5 0
-10 -4 -10 -10z"/>
<path d="M4117 3733 c-11 -10 -8 -93 3 -93 6 0 10 23 10 50 0 51 -1 55 -13 43z"/>
<path d="M4100 3600 c0 -16 5 -30 10 -30 6 0 10 14 10 30 0 17 -4 30 -10 30
-5 0 -10 -13 -10 -30z"/>
<path d="M2234 4002 c-18 -15 -47 -53 -131 -170 -9 -13 -27 -35 -40 -50 -38
-44 -23 -62 16 -19 25 27 191 247 191 253 0 9 -16 3 -36 -14z"/>
<path d="M2545 3724 c-16 -14 -50 -43 -75 -65 -24 -21 -68 -48 -97 -59 -44
-16 -173 -95 -173 -105 0 -5 49 1 115 15 58 11 105 41 105 65 0 7 17 24 38 38
52 37 149 137 132 137 -8 0 -28 -12 -45 -26z"/>
<path d="M2092 3453 c2 -10 18 -27 35 -38 21 -13 32 -28 33 -43 0 -28 49 -75
107 -102 52 -25 63 -25 63 -2 0 11 -23 29 -65 51 -69 37 -84 57 -35 48 46 -10
49 13 5 40 -50 31 -116 63 -130 63 -10 0 -15 -7 -13 -17z"/>
<path d="M437 3406 c-6 -15 1 -26 15 -26 11 0 10 27 -1 34 -5 3 -11 0 -14 -8z"/>
<path d="M2240 3201 c0 -6 4 -11 9 -11 5 0 16 -6 23 -13 35 -34 198 -62 198
-34 0 8 -35 21 -92 35 -51 13 -103 25 -115 29 -14 3 -23 1 -23 -6z"/>
<path d="M2078 3143 c-66 -72 -151 -238 -146 -286 3 -29 11 -18 72 103 37 74
79 149 92 167 13 17 24 34 24 37 0 14 -18 4 -42 -21z"/>
<path d="M2280 2935 c-21 -49 -21 -61 2 -52 20 7 42 77 29 90 -7 7 -16 -4 -31
-38z"/>
<path d="M2223 2820 c-10 -27 -9 -30 7 -30 20 0 36 33 25 50 -11 17 -20 11
-32 -20z"/>
<path d="M473 2791 c0 -11 5 -17 9 -15 11 7 10 34 -1 34 -6 0 -9 -9 -8 -19z"/>
<path d="M827 2793 c-1 -1 -24 -4 -50 -7 -27 -3 -53 -9 -59 -12 -16 -10 34
-34 58 -28 22 6 102 13 189 18 53 3 85 13 85 26 0 7 -217 10 -223 3z"/>
<path d="M1068 2795 c-18 -19 9 -34 72 -40 61 -6 73 -4 95 13 32 26 23 31 -40
25 -65 -6 -76 -6 -100 2 -11 3 -23 3 -27 0z"/>
<path d="M1290 2785 c-24 -14 -24 -14 -3 -15 12 0 25 5 28 11 11 17 2 18 -25
4z"/>
<path d="M2114 2677 c-38 -41 -104 -102 -146 -137 -43 -34 -78 -68 -78 -75 0
-20 25 -36 82 -51 69 -18 142 -18 196 1 24 9 48 13 53 9 6 -3 9 -41 7 -86 -2
-57 1 -82 9 -85 16 -6 21 20 28 135 6 109 2 114 -72 83 -26 -11 -69 -22 -95
-26 -53 -7 -138 3 -138 15 0 5 54 63 120 130 66 67 120 128 120 135 0 32 -22
20 -86 -48z"/>
<path d="M675 2690 c-11 -4 -30 -10 -42 -15 -33 -11 -26 -45 9 -45 15 0 28 5
28 12 0 9 3 9 11 1 9 -9 18 -8 36 4 20 13 29 14 44 5 24 -15 29 -15 29 1 0 16
-52 47 -77 46 -10 -1 -27 -4 -38 -9z"/>
<path d="M1450 2686 c0 -8 5 -18 10 -21 6 -3 10 3 10 14 0 12 -4 21 -10 21 -5
0 -10 -6 -10 -14z"/>
<path d="M847 2678 c-9 -5 -17 -12 -17 -17 0 -11 185 -31 214 -23 72 19 -12
46 -90 30 -35 -8 -50 -7 -67 5 -16 10 -28 12 -40 5z"/>
<path d="M1313 2669 c-10 -10 -34 -11 -113 -3 -30 3 -66 1 -79 -3 -22 -9 -20
-11 24 -28 45 -17 49 -17 77 0 27 16 31 16 47 0 17 -15 20 -15 36 2 11 10 29
16 44 14 21 -2 24 0 14 10 -16 16 -38 20 -50 8z"/>
<path d="M1440 2605 c0 -8 2 -15 4 -15 2 0 6 7 10 15 3 8 1 15 -4 15 -6 0 -10
-7 -10 -15z"/>
<path d="M436 2529 c-13 -28 -15 -44 -8 -51 18 -18 42 0 44 32 0 16 1 35 2 42
2 29 -22 14 -38 -23z"/>
<path d="M830 2562 c0 -4 -35 -7 -77 -7 -84 -1 -112 -19 -46 -31 21 -4 47 -12
58 -17 11 -6 23 -12 28 -13 4 -1 8 -2 10 -4 10 -9 111 -3 119 7 6 7 14 11 18
8 16 -10 22 17 9 41 -11 21 -20 24 -66 24 -29 0 -53 -3 -53 -8z"/>
<path d="M545 2530 c-3 -5 -1 -10 4 -10 6 0 11 5 11 10 0 6 -2 10 -4 10 -3 0
-8 -4 -11 -10z"/>
<path d="M912 2403 c-2 -51 -6 -67 -27 -89 -26 -28 -32 -44 -15 -44 10 0 31
20 60 56 19 23 21 64 3 64 -6 0 -14 17 -16 38 -2 25 -4 17 -5 -25z"/>
<path d="M980 2416 c-17 -12 -23 -126 -7 -126 6 0 15 -7 22 -16 8 -12 20 -15
38 -10 l26 6 -19 33 c-20 34 -17 49 13 60 10 4 17 17 17 33 0 19 -4 25 -15 20
-8 -3 -25 -2 -38 3 -15 6 -28 5 -37 -3z"/>
<path d="M5041 2303 c-32 -26 -22 -49 26 -56 67 -12 110 -8 134 12 l23 18 -28
18 c-42 28 -125 32 -155 8z"/>
<path d="M1070 2285 c0 -9 6 -12 15 -9 8 4 15 10 15 15 0 5 -7 9 -15 9 -8 0
-15 -7 -15 -15z"/>
<path d="M682 2259 c-13 -5 -20 -13 -17 -19 3 -5 0 -10 -7 -11 -7 -1 -2 -4 12
-8 14 -4 24 -13 23 -19 -5 -20 16 -13 28 10 10 18 9 20 -5 15 -23 -9 -32 14
-11 30 21 15 11 16 -23 2z"/>
<path d="M570 2220 c0 -18 3 -19 20 -8 14 9 16 14 7 20 -20 13 -27 9 -27 -12z"/>
<path d="M866 2225 c-17 -13 -18 -15 -2 -21 20 -8 29 -1 24 20 -3 13 -6 13
-22 1z"/>
<path d="M3823 2183 c-18 -9 -33 -19 -33 -22 2 -38 141 -83 141 -46 0 6 -18
14 -40 18 -27 5 -41 14 -41 24 0 13 13 15 80 11 44 -2 80 -1 80 1 0 31 -132
41 -187 14z"/>
<path d="M1020 2110 c0 -5 5 -10 10 -10 6 0 10 5 10 10 0 6 -4 10 -10 10 -5 0
-10 -4 -10 -10z"/>
<path d="M3260 2070 c0 -15 7 -20 29 -20 15 0 40 -9 54 -20 27 -21 47 -26 47
-11 0 13 -93 71 -113 71 -10 0 -17 -8 -17 -20z"/>
<path d="M1100 2060 c0 -5 5 -10 10 -10 6 0 10 5 10 10 0 6 -4 10 -10 10 -5 0
-10 -4 -10 -10z"/>
<path d="M4900 2050 c0 -15 24 -31 105 -71 114 -55 150 -60 150 -19 0 20 -13
31 -80 66 -59 32 -92 43 -127 43 -42 1 -48 -2 -48 -19z"/>
<path d="M2159 1888 c-15 -6 -19 -12 -12 -19 13 -13 122 -8 126 6 3 13 -86 23
-114 13z"/>
<path d="M4320 1871 c0 -25 6 -27 13 -6 4 8 2 17 -3 20 -6 4 -10 -3 -10 -14z"/>
<path d="M4802 1858 c-19 -19 -15 -33 21 -77 17 -22 40 -51 50 -65 25 -36 67
-36 67 -1 0 32 -38 93 -80 128 -36 30 -41 32 -58 15z"/>
<path d="M4321 1803 c-1 -18 4 -33 9 -33 12 0 12 17 0 45 -7 17 -9 15 -9 -12z"/>
<path d="M866 1775 c-9 -24 -7 -65 3 -65 11 0 21 63 11 73 -4 5 -10 1 -14 -8z"/>
<path d="M1287 1534 c-13 -13 5 -24 39 -24 24 0 34 4 32 13 -5 13 -60 22 -71
11z"/>
<path d="M4941 1500 c-1 -14 -4 -36 -6 -50 l-6 -25 11 25 c6 13 9 36 7 50 l-4
25 -2 -25z"/>
<path d="M4225 1500 c-3 -5 -1 -10 4 -10 6 0 11 5 11 10 0 6 -2 10 -4 10 -3 0
-8 -4 -11 -10z"/>
<path d="M4175 1460 c-3 -5 1 -10 9 -10 9 0 16 5 16 10 0 6 -4 10 -9 10 -6 0
-13 -4 -16 -10z"/>
<path d="M2255 1436 c-27 -6 -54 -14 -60 -17 -5 -4 -26 -10 -45 -13 -36 -7
-48 -11 -113 -40 -21 -9 -44 -16 -51 -16 -13 0 -120 -54 -141 -71 -6 -4 -28
-8 -50 -7 -49 0 -113 -18 -140 -40 -11 -10 -28 -33 -37 -54 -9 -20 -32 -47
-50 -60 -191 -139 -242 -179 -295 -235 -35 -36 -63 -69 -63 -75 0 -13 -59 -68
-83 -77 -16 -6 -12 -12 29 -44 l47 -37 18 35 c11 19 19 44 19 54 0 11 5 23 10
26 6 4 16 21 24 38 12 29 43 60 172 171 23 20 45 36 49 36 4 0 20 11 37 25 36
30 105 34 201 9 199 -52 301 -131 393 -309 23 -44 45 -91 48 -105 4 -14 13
-38 21 -55 16 -35 75 -222 98 -310 48 -180 43 -171 97 -181 32 -7 33 -7 26 22
-4 16 -13 69 -20 119 -7 50 -15 97 -18 105 -3 8 -12 50 -19 93 -7 44 -20 95
-30 114 -10 20 -16 40 -13 45 3 5 1 14 -4 21 -5 7 -19 37 -30 67 -25 68 -61
140 -71 140 -4 0 -13 15 -20 33 -7 18 -29 44 -48 57 -19 13 -38 32 -44 42 -5
10 -16 18 -24 18 -8 0 -15 4 -15 8 0 4 -21 24 -47 44 -27 20 -57 45 -68 55
-27 24 -162 90 -202 98 -46 9 -41 23 12 30 56 9 85 -1 188 -65 215 -134 327
-247 401 -405 10 -22 25 -52 32 -67 8 -14 14 -33 14 -41 0 -9 6 -28 14 -44 39
-80 63 -198 85 -422 8 -81 18 -100 49 -101 8 0 12 15 12 44 0 26 6 48 14 56 8
6 16 23 18 37 5 40 21 37 42 -9 18 -38 18 -44 3 -89 -12 -41 -13 -49 -1 -49
18 0 40 89 59 244 5 37 4 47 -7 44 -8 -3 -15 -26 -18 -58 -6 -66 -25 -76 -34
-18 -11 66 -9 93 9 231 9 71 14 132 11 135 -13 12 -20 -12 -32 -106 -8 -53
-21 -128 -29 -167 -9 -38 -20 -91 -24 -117 -7 -47 -16 -66 -26 -56 -3 2 -7 54
-11 114 -6 121 -6 125 -65 309 -56 177 -78 221 -140 286 -78 81 -229 213 -336
293 -51 38 -93 75 -93 82 0 6 18 21 40 33 42 22 38 22 150 -7 61 -16 137 -62
177 -106 50 -57 103 -123 103 -130 0 -2 19 -33 43 -69 23 -35 47 -73 53 -83
20 -32 27 -8 8 28 -21 41 -107 169 -152 226 -41 50 -31 53 38 12 28 -16 57
-30 64 -30 8 0 19 -7 26 -15 15 -19 51 -20 44 -2 -2 7 -28 25 -57 40 -29 15
-68 36 -87 47 -66 36 -205 99 -247 112 -24 7 -43 16 -43 20 0 3 17 12 38 18
20 6 46 15 57 19 45 18 156 41 198 41 55 0 77 8 77 26 0 17 -90 17 -165 0z
m-461 -336 c64 -23 122 -58 176 -107 44 -41 27 -44 -20 -3 -19 16 -36 27 -39
25 -2 -3 -10 0 -17 6 -22 18 -87 49 -104 49 -9 0 -21 5 -26 10 -6 6 -34 13
-63 17 -28 3 -54 10 -57 14 -10 17 92 9 150 -11z m338 -252 c34 -33 55 -67 74
-115 14 -37 32 -81 39 -98 20 -46 57 -156 65 -195 4 -19 11 -43 15 -52 4 -10
3 -18 -2 -18 -6 0 -21 35 -35 78 -45 135 -85 235 -117 292 -49 85 -54 92 -88
133 -63 72 -35 58 49 -25z"/>
<path d="M3100 1437 c0 -11 13 -18 38 -23 20 -4 42 -10 47 -14 6 -5 31 -11 58
-15 26 -4 50 -11 53 -16 3 -5 13 -9 23 -9 11 0 29 -8 41 -18 22 -18 22 -19 5
-58 -9 -21 -21 -47 -26 -56 -13 -24 -12 -28 9 -28 12 0 22 17 35 59 11 33 17
67 15 77 -5 27 -61 52 -183 82 -44 11 -88 23 -97 27 -13 5 -18 2 -18 -8z"/>
<path d="M4226 1432 c-2 -4 -1 -14 4 -22 7 -11 12 -12 21 -3 6 6 8 16 5 22 -8
13 -23 14 -30 3z"/>
<path d="M1153 1418 c-10 -17 10 -28 52 -28 28 0 45 5 48 15 4 8 2 17 -3 20
-13 8 -91 2 -97 -7z"/>
<path d="M2604 1419 c-7 -12 12 -29 33 -29 19 0 27 21 12 31 -19 12 -36 11
-45 -2z"/>
<path d="M4410 1390 c-9 -16 -8 -18 5 -14 8 4 15 12 15 20 0 20 -7 17 -20 -6z"/>
<path d="M4940 1324 c0 -20 -8 -49 -17 -66 -16 -27 -17 -31 -2 -41 12 -9 15
-28 13 -82 -6 -165 -7 -516 -1 -521 4 -4 14 -1 23 7 12 10 15 24 10 61 -6 40
-4 49 13 59 19 12 19 13 0 28 -11 9 -22 35 -25 61 -6 43 -4 48 29 81 25 25 34
42 31 56 -5 16 1 21 26 27 18 3 50 6 71 6 42 0 49 12 25 45 -12 17 -16 17 -31
5 -14 -11 -18 -11 -25 0 -4 7 -15 10 -23 7 -20 -7 -67 14 -67 30 0 7 11 15 25
19 14 3 25 9 25 13 0 13 -24 31 -42 31 -10 0 -18 7 -18 16 0 11 6 15 20 11 12
-3 20 0 20 8 0 7 18 15 45 19 59 9 66 24 13 28 -38 3 -43 6 -43 28 0 18 -6 26
-23 28 -12 2 -22 7 -22 12 0 5 -9 12 -21 15 -15 5 -18 10 -10 18 15 15 14 27
-4 27 -11 0 -15 -11 -15 -36z"/>
<path d="M1113 1334 c-37 -16 -50 -32 -30 -39 19 -8 110 32 102 45 -8 13 -33
11 -72 -6z"/>
<path d="M5083 1269 c14 -8 22 -8 30 0 8 8 3 11 -18 11 -26 -1 -28 -2 -12 -11z"/>
<path d="M4767 1257 c-8 -23 13 -47 43 -47 34 0 41 19 10 27 -11 3 -20 9 -20
13 0 14 -29 19 -33 7z"/>
<path d="M5195 1250 c3 -5 8 -10 11 -10 2 0 4 5 4 10 0 6 -5 10 -11 10 -5 0
-7 -4 -4 -10z"/>
<path d="M5343 1233 c-4 -10 -11 -21 -17 -25 -7 -5 -7 -10 -1 -17 7 -6 21 -1
40 15 25 20 28 26 15 34 -22 14 -30 12 -37 -7z"/>
<path d="M5085 1090 c3 -5 11 -10 16 -10 6 0 7 5 4 10 -3 6 -11 10 -16 10 -6
0 -7 -4 -4 -10z"/>
<path d="M4390 1024 c0 -5 -13 -18 -30 -27 -32 -20 -39 -49 -16 -72 17 -18 26
-9 26 26 0 17 8 34 22 43 17 12 20 18 10 28 -7 7 -12 8 -12 2z"/>
<path d="M5105 960 c3 -5 15 -10 26 -10 11 0 17 5 14 10 -3 6 -15 10 -26 10
-11 0 -17 -4 -14 -10z"/>
<path d="M5222 894 c-7 -8 -24 -14 -37 -14 -29 0 -32 -19 -7 -41 21 -18 35 -8
52 37 12 32 10 37 -8 18z"/>
<path d="M4792 880 c0 -14 2 -19 5 -12 2 6 2 18 0 25 -3 6 -5 1 -5 -13z"/>
<path d="M4791 834 c0 -11 3 -14 6 -6 3 7 2 16 -1 19 -3 4 -6 -2 -5 -13z"/>
<path d="M1550 817 c0 -7 13 -28 30 -47 27 -33 29 -33 30 -12 0 12 -7 34 -16
47 -17 27 -44 34 -44 12z"/>
<path d="M4790 790 c0 -19 3 -21 12 -12 9 9 9 15 0 24 -9 9 -12 7 -12 -12z"/>
<path d="M2500 773 c0 -17 38 -64 44 -55 9 15 -15 62 -31 62 -7 0 -13 -3 -13
-7z"/>
<path d="M2617 754 c-11 -11 -8 -44 3 -44 15 0 24 30 13 41 -5 5 -12 6 -16 3z"/>
<path d="M1510 733 c0 -28 44 -97 63 -101 16 -3 14 5 -13 57 -30 60 -50 78
-50 44z"/>
<path d="M1497 593 c-24 -24 26 -149 73 -183 31 -22 51 -27 32 -8 -7 7 -12 22
-12 35 0 12 -13 37 -29 55 -15 18 -34 50 -40 71 -13 40 -14 41 -24 30z"/>
<path d="M3527 324 c-7 -94 -34 -270 -42 -284 -5 -8 0 -11 16 -8 22 3 25 11
36 83 15 94 17 245 4 258 -6 6 -11 -14 -14 -49z"/>
<path d="M2098 329 c-2 -6 1 -45 7 -86 7 -55 15 -77 28 -85 17 -9 18 -6 12 49
-3 32 -9 70 -11 85 -6 31 -30 56 -36 37z"/>
<path d="M2705 178 c-10 -51 -24 -105 -32 -120 -12 -24 -12 -28 1 -28 21 0 22
5 46 110 22 102 24 130 12 130 -5 0 -16 -42 -27 -92z"/>
<path d="M3566 74 c-10 -25 -7 -34 9 -34 8 0 15 9 15 19 0 26 -16 35 -24 15z"/>
</g>
</svg>
