<?xml version="1.0" standalone="no"?>
<!DOCTYPE svg PUBLIC "-//W3C//DTD SVG 20010904//EN"
 "http://www.w3.org/TR/2001/REC-SVG-20010904/DTD/svg10.dtd">
<svg version="1.0" xmlns="http://www.w3.org/2000/svg"
 width="700.000000pt" height="700.000000pt" viewBox="0 0 700.000000 700.000000"
 preserveAspectRatio="xMidYMid meet">
<metadata>
Created by potrace 1.14, written by Peter Selinger 2001-2017
</metadata>
<g transform="translate(0.000000,700.000000) scale(0.100000,-0.100000)"
fill="#000000" stroke="none">
<path d="M4717 6344 c-1 -1 -34 -4 -72 -7 -187 -15 -414 -130 -553 -281 -42
-45 -132 -176 -132 -193 0 -4 -7 -16 -14 -26 -12 -16 -15 -15 -29 16 -29 60
-163 240 -242 324 -63 68 -85 85 -125 97 -52 15 -99 12 -140 -9 -56 -29 -203
-201 -295 -343 l-57 -90 -29 54 c-179 341 -607 527 -983 427 -77 -20 -230 -84
-246 -102 -3 -4 -25 -19 -50 -35 -47 -30 -193 -140 -220 -166 -9 -8 -41 -36
-71 -62 -58 -50 -222 -215 -285 -288 -192 -221 -356 -481 -487 -770 -20 -43
-87 -219 -92 -240 -2 -8 -13 -42 -24 -75 -114 -343 -158 -799 -116 -1205 7
-67 16 -135 26 -185 5 -27 11 -61 14 -75 3 -14 7 -36 10 -50 3 -14 7 -34 9
-45 18 -95 83 -302 138 -439 66 -167 243 -503 270 -514 4 -2 8 -8 8 -13 0 -18
87 -138 194 -269 244 -297 568 -567 886 -737 41 -23 100 -54 131 -70 158 -85
506 -206 714 -249 156 -32 286 -50 430 -60 161 -11 436 -5 560 12 17 2 53 6
80 9 188 21 489 100 710 187 190 75 495 237 605 320 14 10 68 51 120 90 293
218 557 508 755 828 65 106 175 317 200 385 10 28 22 55 26 60 15 20 101 283
129 395 47 187 63 286 85 535 12 126 6 405 -10 525 -2 19 -7 55 -10 80 -8 61
-14 99 -21 133 -3 16 -7 38 -9 50 -6 55 -60 254 -99 372 -103 305 -251 588
-440 840 -95 126 -113 148 -211 253 -188 202 -430 403 -602 499 -59 33 -172
76 -233 88 -65 12 -196 25 -203 19z"/>
</g>
</svg>
