<?xml version="1.0" standalone="no"?>
<!DOCTYPE svg PUBLIC "-//W3C//DTD SVG 20010904//EN"
 "http://www.w3.org/TR/2001/REC-SVG-20010904/DTD/svg10.dtd">
<svg version="1.0" xmlns="http://www.w3.org/2000/svg"
 width="256.000000pt" height="256.000000pt" viewBox="0 0 256.000000 256.000000"
 preserveAspectRatio="xMidYMid meet">
<metadata>
Created by potrace 1.14, written by Peter Selinger 2001-2017
</metadata>
<g transform="translate(0.000000,256.000000) scale(0.100000,-0.100000)"
fill="#000000" stroke="none">
<path d="M418 2381 c-235 -75 -314 -306 -210 -615 22 -65 31 -81 47 -81 24 0
25 19 0 129 -25 117 -18 253 18 324 122 237 543 149 982 -205 140 -113 353
-335 466 -485 212 -284 339 -567 342 -768 2 -135 -29 -180 -140 -202 -110 -22
-302 23 -503 118 l-94 45 29 15 c125 65 102 159 -66 272 -41 28 -47 36 -53 78
-3 26 -6 69 -6 96 0 146 -90 176 -227 74 -95 -71 -92 -70 -194 -46 -110 26
-159 17 -189 -33 -27 -44 -25 -76 10 -164 17 -41 30 -84 30 -96 0 -12 -21 -52
-46 -89 -79 -113 -69 -202 24 -228 20 -5 76 -10 124 -10 87 0 88 0 115 -32 16
-18 48 -54 73 -80 77 -79 146 -74 194 14 l20 35 80 -55 c105 -72 297 -164 411
-197 107 -32 279 -44 366 -26 174 36 309 164 354 336 19 74 19 238 1 325 -92
430 -499 947 -1011 1282 -205 135 -428 234 -614 273 -100 21 -261 19 -333 -4z"/>
</g>
</svg>
