<?xml version="1.0" encoding="UTF-8"?>
<svg version="1.1" xmlns="http://www.w3.org/2000/svg" width="348" height="348">
<path d="M0 0 C0.67756348 0.18933105 1.35512695 0.37866211 2.05322266 0.57373047 C20.88050328 5.89933773 38.25050707 16.32094199 52.48828125 29.6640625 C54.5475485 31.57921307 56.63499026 33.43412163 58.7578125 35.27734375 C63.11232408 39.07387155 67.3501625 42.98438327 71.5625 46.9375 C72.27857422 47.60201172 72.99464844 48.26652344 73.73242188 48.95117188 C80.25980143 55.07467353 86.19105081 61.39761368 91.0625 68.9375 C93.75657132 73.10876058 93.75657132 73.10876058 96.55859375 77.20703125 C101.15859079 83.72681026 104.6523363 90.77234576 108.04492188 97.97412109 C108.91503714 99.81977969 109.80788339 101.6546786 110.703125 103.48828125 C117.91904957 119.57833528 119.67589091 138.50183468 120 156 C120.02046387 156.92828613 120.04092773 157.85657227 120.06201172 158.81298828 C121.02438703 209.26213384 108.35661704 250.24752617 74 288 C72.74316406 289.38251953 72.74316406 289.38251953 71.4609375 290.79296875 C60.39359652 302.3785689 47.08617344 312.56149982 32.6875 319.625 C29.97188191 320.865084 29.97188191 320.865084 28.01171875 322.81640625 C23.71621371 325.93078668 19.09022784 327.51859008 14.125 329.3125 C13.15691406 329.68439453 12.18882812 330.05628906 11.19140625 330.43945312 C5.68864103 332.44964695 1.697563 333.73568144 -4 332 C-9.37360341 325.75500145 -10.29475904 319.16878727 -10.37890625 311.26171875 C-10.39590073 310.42268509 -10.4128952 309.58365143 -10.43040466 308.7191925 C-10.48324987 306.04203794 -10.52357812 303.36489002 -10.5625 300.6875 C-10.81146309 285.6491242 -10.81146309 285.6491242 -11.3984375 270.62109375 C-11.49584229 268.64967407 -11.49584229 268.64967407 -11.59521484 266.63842773 C-12.1145018 261.97079592 -13.48515716 257.90338395 -15.13671875 253.53125 C-16.30911752 250.09362828 -16.46806168 247.5884729 -16 244 C-13.27694669 241.27694669 -11.1657418 241.40704792 -7.375 240.8125 C0.72686103 239.36816531 7.76977963 236.43161009 15.15576172 232.87890625 C16.84076832 232.07588484 18.54652509 231.31678123 20.25390625 230.5625 C37.53285755 222.63265533 45.45055901 211.35305458 51.88671875 194.1015625 C59.91138029 170.3859827 57.53961189 146.94285492 49.01318359 123.890625 C47.40751893 119.30964436 46.21348025 114.66500237 45.125 109.9375 C44.82094238 108.61878906 44.82094238 108.61878906 44.51074219 107.2734375 C42.79808465 99.21249019 42.19531242 91.08418503 41.98291016 82.85327148 C41.86270119 77.72844871 41.86270119 77.72844871 39.68286133 73.25756836 C35.44840498 69.65365176 30.83251293 67.44560418 25.20703125 67.6171875 C18.14653896 68.84183926 11.40483304 72.16975917 5.1875 75.625 C-4.34144404 80.56074389 -17.35632382 82.36776125 -27.88427734 80.48388672 C-33.80748002 79.61711957 -39.82045636 79.93982244 -45.7890625 80.0078125 C-47.13796398 80.01731989 -48.48687214 80.02591927 -49.83578491 80.03366089 C-55.52884206 80.06698866 -61.22173871 80.10838943 -66.91455078 80.17138672 C-70.41098993 80.20947944 -73.90726445 80.2321919 -77.40388107 80.24569321 C-79.35395737 80.25745013 -81.3039135 80.28558477 -83.2538147 80.3142395 C-93.84609979 80.34428667 -103.98936031 78.9876527 -113.5 74.0625 C-125.7591929 67.93222472 -125.7591929 67.93222472 -139 68 C-143.98296293 71.54556978 -146.3684365 74.03165155 -147.625 79.9375 C-148.60465124 88.23781775 -148.52564609 96.49989748 -146.33984375 104.5859375 C-145.47086317 110.75869613 -147.26014764 114.98627312 -150.6875 120 C-162.40825266 137.88441174 -164.98392341 158.96050082 -161.28125 179.9453125 C-160.44547758 183.7202697 -159.28542713 187.35307157 -158 191 C-157.61457031 192.15371094 -157.22914063 193.30742187 -156.83203125 194.49609375 C-151.51463871 209.38135119 -143.13201286 222.0375273 -128.5625 229 C-127.40878906 229.515625 -126.25507812 230.03125 -125.06640625 230.5625 C-122 232 -122 232 -120.00390625 233.53125 C-117.30396766 235.51015236 -114.53364653 236.40743047 -111.375 237.5 C-109.51875 238.14582031 -109.51875 238.14582031 -107.625 238.8046875 C-103.80661534 240.06376693 -99.97418682 241.20473589 -96.0859375 242.2265625 C-93.6811167 243.11823763 -91.97557489 244.38199523 -90 246 C-90.74323074 254.02689195 -91.77846009 263.29692175 -98 269 C-107.54722891 273.86040744 -119.15912652 274.43369042 -129.625 272.3125 C-134.71470608 270.33316986 -137.09902255 267.13199731 -140.4375 262.9375 C-142.86799317 259.88761396 -142.86799317 259.88761396 -146.125 257.9375 C-149.25147928 255.83052483 -150.3952868 254.36989772 -152 251 C-152.185625 249.989375 -152.37125 248.97875 -152.5625 247.9375 C-154.30549502 244.37572757 -155.20916337 244.23424681 -158.8125 242.875 C-160.16601562 242.41480469 -160.16601562 242.41480469 -161.546875 241.9453125 C-164 241 -164 241 -166.5625 238.75 C-170.19778606 236.14005103 -173.66441912 236.65995444 -178 237 C-177.81945286 238.94616486 -177.81945286 238.94616486 -177 241 C-175.11742435 242.21106334 -175.11742435 242.21106334 -172.8125 243.125 C-166.99671007 246.12491696 -164.9994621 250.39485993 -162 256 C-160.99823975 257.53346377 -159.97777264 259.05489675 -158.9375 260.5625 C-156.9183596 263.52320846 -155.19433716 266.4984849 -153.5625 269.6875 C-151.50967366 273.44775651 -149.31115861 275.92999799 -145.91796875 278.52734375 C-144 280 -144 280 -142.11328125 281.81640625 C-135.34975687 287.98731707 -127.73269049 288.87333837 -119 290 C-102.02598508 292.22192041 -102.02598508 292.22192041 -98 296 C-95.45727721 300.89125196 -94.38878677 305.45484513 -93.8125 310.9375 C-93.6897168 311.93426758 -93.6897168 311.93426758 -93.56445312 312.95117188 C-92.1599234 325.11982856 -92.1599234 325.11982856 -94.3125 329.9375 C-96 332 -96 332 -99 333 C-109.57579144 333.88131595 -119.48212382 329.23244196 -128.875 324.875 C-129.9271167 324.38926514 -130.9792334 323.90353027 -132.06323242 323.40307617 C-140.03968411 319.63397007 -147.00100005 315.38922996 -154 310 C-155.85390737 308.7079612 -157.70807111 307.41629017 -159.5625 306.125 C-164.79242979 302.30959801 -169.47248662 298.04708287 -174.17578125 293.61328125 C-176.07185716 291.85882097 -178.03220983 290.17158545 -180.046875 288.5546875 C-183.11459123 285.90086949 -185.53836729 283.05357789 -187.9375 279.8125 C-188.37006104 279.2364502 -188.80262207 278.66040039 -189.24829102 278.06689453 C-190.5065347 276.38347061 -191.75346437 274.69209915 -193 273 C-193.598125 272.20722656 -194.19625 271.41445313 -194.8125 270.59765625 C-204.16382326 257.80702419 -211.67953365 243.90362089 -217 229 C-217.47167603 227.78074829 -217.47167603 227.78074829 -217.95288086 226.53686523 C-220.517767 219.80381318 -222.25455884 213.11662513 -223.6875 206.0625 C-224.10773031 204.05331373 -224.52828968 202.04419625 -224.94921875 200.03515625 C-225.12799561 199.1625415 -225.30677246 198.28992676 -225.4909668 197.39086914 C-225.79305636 195.97198998 -226.12522027 194.55813332 -226.52075195 193.16241455 C-227.06059301 190.72659833 -227.14876022 188.50540576 -227.17700195 186.01049805 C-227.18983719 185.01813644 -227.20267242 184.02577484 -227.21589661 183.00334167 C-227.22328354 181.93360611 -227.23067047 180.86387054 -227.23828125 179.76171875 C-227.246353 178.64875931 -227.25442474 177.53579987 -227.26274109 176.38911438 C-227.27657458 174.02789868 -227.28730002 171.66666304 -227.29516602 169.30541992 C-227.30662794 166.91310687 -227.32698648 164.52081821 -227.35668945 162.12866211 C-227.52284261 148.74080224 -227.44646996 136.71582603 -223 124 C-222.56283492 122.43969676 -222.13644498 120.876285 -221.7265625 119.30859375 C-212.94872865 88.02489284 -194.07090881 61.49091389 -171 39 C-169.69869141 37.69289063 -169.69869141 37.69289063 -168.37109375 36.359375 C-156.80482933 24.85027498 -143.18600081 16.85004784 -129 9 C-127.94296875 8.40832031 -126.8859375 7.81664062 -125.796875 7.20703125 C-88.71264814 -11.68971276 -39.20597 -11.37472839 0 0 Z " fill="#cdd6f4" transform="translate(227,11)"/>
<path d="M0 0 C3.3 0.33 6.6 0.66 10 1 C10 1.66 10 2.32 10 3 C6.7 3 3.4 3 0 3 C0 2.01 0 1.02 0 0 Z " fill="#cdd6f4" transform="translate(105,301)"/>
</svg>
