<svg xmlns="http://www.w3.org/2000/svg" width="225" height="225" version="1.1"><path fill="#cdd6f4" d="M0 0 C12.46756407 11.28017702 17.63412109 27.65675335 22.625 43.1875 C30.63915473 69.30255042 30.63915473 69.30255042 50.44921875 86.87109375 C56.68171602 89.62942715 62.90793342 89.2201795 69.625 89.25 C70.76324219 89.270625 71.90148437 89.29125 73.07421875 89.3125 C80.23712068 89.34539507 86.28541804 88.53157113 93 86 C95.15183348 78.42772279 95.15183348 78.42772279 93 71 C85.69247223 62.6116967 71.83591814 61.27255214 61.49609375 58.73242188 C49.48666672 55.6416565 40.57057282 51.07959399 34.0703125 40.1640625 C29.44960927 30.82147275 30.14540831 20.18735779 33.09375 10.46875 C36.07162581 2.35660556 42.42508002 -3.89840761 50 -7.8125 C64.87946127 -14.65750104 83.91796402 -15.31230346 99.46484375 -10.1875 C109.98803035 -5.87029524 116.43648302 0.4935401 120.84765625 11.0234375 C122.06457453 14.71448765 121.86405347 17.28520076 121 21 C117.60621069 21.53477621 114.20976949 22.05033758 110.8125 22.5625 C109.37293945 22.78969727 109.37293945 22.78969727 107.90429688 23.02148438 C106.50727539 23.2293457 106.50727539 23.2293457 105.08203125 23.44140625 C104.22843018 23.57232666 103.3748291 23.70324707 102.49536133 23.83813477 C99.76443666 24.01528016 97.62176695 23.78051087 95 23 C93.84765625 20.8203125 93.84765625 20.8203125 93.0625 18.125 C91.58227641 14.00112898 91.58227641 14.00112898 88.5 10.9375 C80.58721613 8.81800432 72.73421392 8.0148648 65 11 C62.40542441 13.20814944 60.5219559 14.95608819 59 18 C58.9610787 22.46816553 59.1210254 26.62879962 61.5625 30.4375 C67.33019826 34.13474248 73.92927403 35.53655557 80.52734375 37.04052734 C94.49994931 40.24074738 109.05393069 43.80900883 118 56 C123.2575194 65.20451344 124.58692849 75.62938636 122.3515625 86.01171875 C119.49201745 94.77365808 114.30963038 101.29639963 106.3046875 105.90625 C94.90782357 111.31493119 83.68230951 112.22707217 71.25170898 112.29516602 C69.80824917 112.30659522 68.36482852 112.32690056 66.92163086 112.35668945 C47.44696815 112.75686907 29.66449213 108.30245766 15.2109375 94.43359375 C3.65634296 81.71537396 -1.09839079 64.28116549 -6.17724609 48.23535156 C-12.80449547 26.70507718 -12.80449547 26.70507718 -28.81640625 11.98046875 C-36.26267828 8.63697272 -45.72798442 8.68590667 -53.44140625 11.05859375 C-62.47055456 15.22850079 -66.77065103 20.4262818 -70.3125 29.5625 C-75.1309826 43.24536409 -74.56322096 60.20204858 -68.93359375 73.5234375 C-65.16556525 81.00975155 -59.71953098 85.76964471 -52 89 C-38.09434484 90.62991312 -27.94219198 87.36454187 -16.41015625 79.5859375 C-14.31489171 78.20720589 -12.24913367 77.09561759 -10 76 C-8.82307643 79.24637731 -7.66027726 82.4976398 -6.5 85.75 C-6.16613281 86.67039062 -5.83226563 87.59078125 -5.48828125 88.5390625 C-5.17246094 89.42851562 -4.85664062 90.31796875 -4.53125 91.234375 C-4.23798828 92.05131836 -3.94472656 92.86826172 -3.64257812 93.70996094 C-3 96 -3 96 -3 100 C-14.21034097 110.09963898 -30.75489142 112.18189522 -45.125 112.25 C-46.72214844 112.2809375 -46.72214844 112.2809375 -48.3515625 112.3125 C-63.51385675 112.38610337 -76.60034835 108.09327197 -87.67578125 97.57421875 C-97.95324929 86.19127515 -101.57538035 71.99091995 -102 57 C-102.03996094 56.03578125 -102.07992187 55.0715625 -102.12109375 54.078125 C-102.54475816 35.63626243 -99.3087645 17.36607368 -86.5625 3.3125 C-85.716875 2.549375 -84.87125 1.78625 -84 1 C-83.51144531 0.51917969 -83.02289063 0.03835937 -82.51953125 -0.45703125 C-61.83083398 -19.86804175 -21.03553837 -17.16784088 0 0 Z" transform="translate(102,63)"/><path fill="#cdd6f4" d="M0 0 C0.66 0.33 1.32 0.66 2 1 C-1.3 4.3 -4.6 7.6 -8 11 C-8.66 10.67 -9.32 10.34 -10 10 C-7.02911382 6.00073014 -3.87051275 3.07881696 0 0 Z" transform="translate(22,60)"/></svg>