<svg xmlns="http://www.w3.org/2000/svg" width="1066.667" height="1066.667" preserveAspectRatio="xMidYMid meet" version="1.0" viewBox="0 0 800 800"><g fill="#cdd6f4" stroke="none"><path fill="#cdd6f4" d="M1560 6993 c-199 -33 -398 -182 -488 -364 -78 -158 -73 55 -70 -2656 l3 -2428 23 -70 c59 -176 187 -327 342 -402 47 -23 110 -47 140 -55 45 -11 485 -13 2495 -13 l2440 0 75 23 c112 36 196 86 281 171 85 85 136 169 171 281 l23 75 0 2445 0 2445 -23 75 c-35 112 -86 196 -171 281 -83 82 -150 125 -263 167 l-73 27 -2440 1 c-1342 1 -2451 0 -2465 -3z m4440 -2993 l0 -2000 -500 0 -500 0 0 1500 0 1500 -500 0 -500 0 0 -1500 0 -1500 -1000 0 -1000 0 0 2000 0 2000 2000 0 2000 0 0 -2000z" transform="translate(0.000000,800.000000) scale(0.100000,-0.100000)"/></g></svg>