<?xml version="1.0" encoding="UTF-8"?>
<svg version="1.1" xmlns="http://www.w3.org/2000/svg" width="2000" height="2000">
<path d="M0 0 C4.64393104 0.01709011 9.28734558 0.0068854 13.93125916 -0.01032257 C48.06623764 -0.11716673 82.16705652 1.556386 116.07275391 5.64111328 C117.38814148 5.79551376 117.38814148 5.79551376 118.73010254 5.95303345 C206.69274069 16.32276268 292.83584508 38.41601359 410.07275391 87.39111328 C410.72802063 87.69253235 411.38328735 87.99395142 412.05841064 88.30450439 C449.3714383 105.47765759 485.11173752 124.83891588 520.07275391 146.39111328 C520.95946777 146.93622559 521.84618164 147.48133789 522.75976562 148.04296875 C541.05643353 159.32193775 558.90921066 171.40779309 576.27197266 184.07763672 C577.59036348 185.03926126 578.91099546 185.99781523 580.23291016 186.95458984 C590.15592538 194.14007875 599.85292943 201.51705501 609.30712891 209.30908203 C612.86490633 212.23831878 616.49211181 215.06935838 620.13525391 217.89111328 C627.05376445 223.2766508 633.64383059 229.01022806 640.23339844 234.79003906 C641.99948418 236.32733536 643.77979764 237.84548405 645.56884766 239.35595703 C653.99294555 246.47117893 662.06206397 253.90722319 670.0625 261.49414062 C671.99934886 263.32184474 673.94895089 265.13454114 675.90478516 266.94189453 C683.80208796 274.25194398 691.51478603 281.73004521 699.13525391 289.32861328 C700.01592529 290.20469238 700.89659668 291.08077148 701.80395508 291.98339844 C706.24114795 296.43119544 710.51958989 300.94804029 714.61352539 305.71362305 C716.34472292 307.70376162 718.17556124 309.55934106 720.07275391 311.39111328 C723.28710121 314.56227358 726.29026353 317.84694081 729.23291016 321.27001953 C731.26784209 323.61602387 733.35566357 325.90847779 735.44775391 328.20361328 C739.32309133 332.4971996 742.994967 336.9219933 746.63134766 341.41845703 C749.34995714 344.72863594 752.1438228 347.96586304 754.94775391 351.20361328 C760.35405026 357.47099141 765.50388942 363.90569911 770.56738281 370.45166016 C772.21040421 372.5684558 773.86543899 374.67550216 775.52197266 376.78173828 C782.1346527 385.20522557 788.59489671 393.69542383 794.72851562 402.47412109 C796.20968567 404.58638901 797.70528601 406.68802864 799.20166016 408.78955078 C824.26456345 444.11979707 846.76323538 481.14372718 867.07275391 519.39111328 C867.62930664 520.43041992 868.18585938 521.46972656 868.75927734 522.54052734 C878.36417936 540.50657054 886.98273725 558.81513504 895.21075439 577.4418335 C896.02877259 579.29165628 896.85117669 581.13953773 897.67382812 582.98730469 C911.45717833 614.02972945 923.04907446 645.92125583 933.39105225 678.26000977 C934.05276422 680.32862247 934.71818802 682.39601494 935.38378906 684.46337891 C961.86841718 767.05299368 977.12361205 855.54458679 978.46386719 967.31835938 C978.44677708 971.96229041 978.45698179 976.60570495 978.47418976 981.24961853 C978.58103391 1015.38459701 976.90748119 1049.4854159 972.82275391 1083.39111328 C972.71982025 1084.26803833 972.6168866 1085.14496338 972.51083374 1086.04846191 C962.1411045 1174.01110006 940.04785359 1260.15420445 891.07275391 1377.39111328 C890.77133484 1378.04638 890.46991577 1378.70164673 890.15936279 1379.37677002 C872.98620959 1416.68979767 853.62495131 1452.43009689 832.07275391 1487.39111328 C831.25508545 1488.72118408 831.25508545 1488.72118408 830.42089844 1490.078125 C819.14192944 1508.3747929 807.0560741 1526.22757003 794.38623047 1543.59033203 C793.42460592 1544.90872286 792.46605195 1546.22935483 791.50927734 1547.55126953 C784.32378844 1557.47428476 776.94681217 1567.17128881 769.15478516 1576.62548828 C766.22554841 1580.1832657 763.3945088 1583.81047119 760.57275391 1587.45361328 C755.18721638 1594.37212383 749.45363913 1600.96218997 743.67382812 1607.55175781 C742.13653183 1609.31784356 740.61838313 1611.09815701 739.10791016 1612.88720703 C731.99268826 1621.31130492 724.556644 1629.38042335 716.96972656 1637.38085938 C715.14202245 1639.31770824 713.32932604 1641.26731027 711.52197266 1643.22314453 C704.2119232 1651.12044734 696.73382198 1658.83314541 689.13525391 1666.45361328 C688.2591748 1667.33428467 687.3830957 1668.21495605 686.48046875 1669.12231445 C682.03267174 1673.55950733 677.5158269 1677.83794927 672.75024414 1681.93188477 C670.76010557 1683.66308229 668.90452613 1685.49392062 667.07275391 1687.39111328 C663.90159361 1690.60546059 660.61692638 1693.60862291 657.19384766 1696.55126953 C654.84784332 1698.58620147 652.5553894 1700.67402295 650.26025391 1702.76611328 C645.96666759 1706.64145071 641.54187389 1710.31332638 637.04541016 1713.94970703 C633.73523125 1716.66831651 630.49800414 1719.46218218 627.26025391 1722.26611328 C620.99287578 1727.67240964 614.55816807 1732.82224879 608.01220703 1737.88574219 C605.89541139 1739.52876358 603.78836503 1741.18379836 601.68212891 1742.84033203 C593.25864161 1749.45301207 584.76844336 1755.91325609 575.98974609 1762.046875 C573.87747817 1763.52804504 571.77583855 1765.02364538 569.67431641 1766.52001953 C534.34407012 1791.58292282 497.32014 1814.08159476 459.07275391 1834.39111328 C458.03344727 1834.94766602 456.99414062 1835.50421875 455.92333984 1836.07763672 C437.95729665 1845.68253874 419.64873215 1854.30109662 401.02203369 1862.52911377 C399.17221091 1863.34713197 397.32432945 1864.16953606 395.4765625 1864.9921875 C364.43413773 1878.77553771 332.54261136 1890.36743384 300.20385742 1900.70941162 C298.13524472 1901.37112359 296.06785225 1902.0365474 294.00048828 1902.70214844 C211.4108735 1929.18677656 122.91928039 1944.44197142 11.14550781 1945.78222656 C6.50157678 1945.76513646 1.85816223 1945.77534116 -2.78575134 1945.79254913 C-36.92072983 1945.89939329 -71.02154871 1944.22584056 -104.92724609 1940.14111328 C-106.24263367 1939.9867128 -106.24263367 1939.9867128 -107.58459473 1939.82919312 C-195.54723287 1929.45946388 -281.69033726 1907.36621297 -398.92724609 1858.39111328 C-399.58251282 1858.08969421 -400.23777954 1857.78827515 -400.91290283 1857.47772217 C-438.22593048 1840.30456897 -473.96622971 1820.94331068 -508.92724609 1799.39111328 C-509.81395996 1798.84600098 -510.70067383 1798.30088867 -511.61425781 1797.73925781 C-529.91092572 1786.46028881 -547.76370284 1774.37443348 -565.12646484 1761.70458984 C-566.44485567 1760.7429653 -567.76548764 1759.78441133 -569.08740234 1758.82763672 C-579.01041757 1751.64214781 -588.70742162 1744.26517155 -598.16162109 1736.47314453 C-601.71939852 1733.54390779 -605.346604 1730.71286818 -608.98974609 1727.89111328 C-615.90825664 1722.50557576 -622.49832278 1716.7719985 -629.08789062 1710.9921875 C-630.85397637 1709.4548912 -632.63428982 1707.93674251 -634.42333984 1706.42626953 C-642.84743774 1699.31104764 -650.91655616 1691.87500338 -658.91699219 1684.28808594 C-660.85384105 1682.46038183 -662.80344308 1680.64768542 -664.75927734 1678.84033203 C-672.65658015 1671.53028258 -680.36927822 1664.05218135 -687.98974609 1656.45361328 C-688.87041748 1655.57753418 -689.75108887 1654.70145508 -690.65844727 1653.79882812 C-695.09564014 1649.35103112 -699.37408208 1644.83418627 -703.46801758 1640.06860352 C-705.19921511 1638.07846495 -707.03005343 1636.22288551 -708.92724609 1634.39111328 C-712.1415934 1631.21995298 -715.14475572 1627.93528575 -718.08740234 1624.51220703 C-720.12233428 1622.1662027 -722.21015576 1619.87374878 -724.30224609 1617.57861328 C-728.17758352 1613.28502696 -731.84945919 1608.86023326 -735.48583984 1604.36376953 C-738.20444933 1601.05359063 -740.99831499 1597.81636352 -743.80224609 1594.57861328 C-749.20854245 1588.31123515 -754.35838161 1581.87652745 -759.421875 1575.33056641 C-761.06489639 1573.21377076 -762.71993118 1571.10672441 -764.37646484 1569.00048828 C-770.98914489 1560.57700099 -777.4493889 1552.08680274 -783.58300781 1543.30810547 C-785.06417785 1541.19583755 -786.55977819 1539.09419792 -788.05615234 1536.99267578 C-813.11905563 1501.6624295 -835.61772757 1464.63849938 -855.92724609 1426.39111328 C-856.48379883 1425.35180664 -857.04035156 1424.3125 -857.61376953 1423.24169922 C-867.21867155 1405.27565602 -875.83722943 1386.96709152 -884.06524658 1368.34039307 C-884.88326478 1366.49057028 -885.70566887 1364.64268883 -886.52832031 1362.79492188 C-900.31167052 1331.75249711 -911.90356665 1299.86097074 -922.24554443 1267.5222168 C-922.90725641 1265.4536041 -923.57268021 1263.38621162 -924.23828125 1261.31884766 C-950.72290937 1178.72923288 -965.97810423 1090.23763977 -967.31835938 978.46386719 C-967.30126927 973.81993615 -967.31147398 969.17652161 -967.32868195 964.53260803 C-967.4355261 930.39762955 -965.76197338 896.29681067 -961.67724609 862.39111328 C-961.57431244 861.51418823 -961.47137878 860.63726318 -961.36532593 859.73376465 C-950.99559669 771.7711265 -928.90234578 685.62802211 -879.92724609 568.39111328 C-879.62582703 567.73584656 -879.32440796 567.08057983 -879.01385498 566.40545654 C-861.84070178 529.09242889 -842.47944349 493.35212967 -820.92724609 458.39111328 C-820.10957764 457.06104248 -820.10957764 457.06104248 -819.27539062 455.70410156 C-807.99642162 437.40743366 -795.91056629 419.55465653 -783.24072266 402.19189453 C-782.27909811 400.87350371 -781.32054414 399.55287173 -780.36376953 398.23095703 C-773.17828062 388.3079418 -765.80130436 378.61093776 -758.00927734 369.15673828 C-755.0800406 365.59896086 -752.24900099 361.97175538 -749.42724609 358.32861328 C-744.04170857 351.41010273 -738.30813132 344.82003659 -732.52832031 338.23046875 C-730.99102402 336.46438301 -729.47287532 334.68406955 -727.96240234 332.89501953 C-720.84718045 324.47092164 -713.41113619 316.40180321 -705.82421875 308.40136719 C-703.99651464 306.46451833 -702.18381823 304.5149163 -700.37646484 302.55908203 C-693.06641539 294.66177922 -685.58831416 286.94908115 -677.98974609 279.32861328 C-677.11366699 278.44794189 -676.23758789 277.56727051 -675.33496094 276.65991211 C-670.88716393 272.22271923 -666.37031909 267.94427729 -661.60473633 263.8503418 C-659.61459776 262.11914427 -657.75901832 260.28830594 -655.92724609 258.39111328 C-652.75608579 255.17676597 -649.47141857 252.17360365 -646.04833984 249.23095703 C-643.70233551 247.19602509 -641.40988159 245.10820362 -639.11474609 243.01611328 C-634.82115977 239.14077586 -630.39636608 235.46890019 -625.89990234 231.83251953 C-622.58972344 229.11391005 -619.35249633 226.32004439 -616.11474609 223.51611328 C-609.84736797 218.10981692 -603.41266026 212.95997777 -596.86669922 207.89648438 C-594.74990357 206.25346298 -592.64285722 204.5984282 -590.53662109 202.94189453 C-582.1131338 196.32921449 -573.62293555 189.86897048 -564.84423828 183.73535156 C-562.73197036 182.25418152 -560.63033073 180.75858118 -558.52880859 179.26220703 C-523.19856231 154.19930374 -486.17463219 131.7006318 -447.92724609 111.39111328 C-446.88793945 110.83456055 -445.84863281 110.27800781 -444.77783203 109.70458984 C-426.81178884 100.09968782 -408.50322433 91.48112994 -389.87652588 83.25311279 C-388.02670309 82.4350946 -386.17882164 81.6126905 -384.33105469 80.79003906 C-353.28862992 67.00668886 -321.39710355 55.41479273 -289.05834961 45.07281494 C-286.98973691 44.41110297 -284.92234443 43.74567916 -282.85498047 43.08007812 C-200.26536569 16.59545 -111.77377258 1.34025514 0 0 Z M-436.57080078 217.38061523 C-439.17550132 218.940821 -441.78598092 220.48951996 -444.40087891 222.0324707 C-455.51603544 228.6143169 -466.38339446 235.49355234 -477.10986328 242.69067383 C-479.55535698 244.33069954 -482.00653188 245.96195346 -484.45849609 247.59228516 C-498.64795514 257.05788006 -512.64718503 266.83477415 -526.05224609 277.39111328 C-526.7832251 277.9630542 -527.5142041 278.53499512 -528.26733398 279.12426758 C-535.30412157 284.64889281 -542.25131381 290.28254677 -549.16992188 295.95410156 C-550.78066493 297.27124988 -552.39853176 298.57967401 -554.01708984 299.88720703 C-559.35459226 304.20661642 -564.5259594 308.65897626 -569.60302734 313.28173828 C-571.64766944 315.13737985 -573.71508758 316.95867705 -575.80224609 318.76611328 C-580.19609839 322.59642541 -584.48679094 326.53695393 -588.77099609 330.48876953 C-590.73811552 332.30295742 -592.71674991 334.09967078 -594.70849609 335.88720703 C-602.64437411 343.06576335 -610.22895167 350.58437326 -617.80224609 358.14111328 C-618.62141006 358.95639496 -618.62141006 358.95639496 -619.4571228 359.78814697 C-624.93147627 365.24204345 -630.3429278 370.70593814 -635.36621094 376.58496094 C-638.07554239 379.7197176 -640.95250938 382.69704703 -643.80224609 385.70361328 C-648.72218382 390.93059988 -653.38099292 396.2497419 -657.86083984 401.85986328 C-659.92837392 404.39249481 -662.0883795 406.79842489 -664.30224609 409.20361328 C-669.36119116 414.76318312 -673.93725812 420.6573784 -678.53320312 426.59863281 C-679.87084819 428.31859605 -681.22183532 430.02684169 -682.57958984 431.73095703 C-690.29322257 441.42382971 -697.65349767 451.36502216 -704.92724609 461.39111328 C-705.42836914 462.08011719 -705.92949219 462.76912109 -706.44580078 463.47900391 C-726.07787792 490.56781447 -743.75402654 519.12435924 -759.92724609 548.39111328 C-760.72364502 549.82729004 -760.72364502 549.82729004 -761.53613281 551.29248047 C-802.80442399 625.89912667 -832.22760288 705.96880657 -834.92724609 1217.39111328 C-815.02080992 1285.84939316 -786.64779794 1352.86004961 -749.93774414 1414.03466797 C-748.37753837 1416.63936851 -746.82883942 1419.24984811 -745.28588867 1421.86474609 C-738.70404248 1432.97990263 -731.82480704 1443.84726165 -724.62768555 1454.57373047 C-722.98765983 1457.01922417 -721.35640592 1459.47039907 -719.72607422 1461.92236328 C-710.26047931 1476.11182233 -700.48358523 1490.11105222 -689.92724609 1503.51611328 C-689.35530518 1504.24709229 -688.78336426 1504.97807129 -688.1940918 1505.73120117 C-682.66946656 1512.76798876 -677.03581261 1519.71518099 -671.36425781 1526.63378906 C-670.04710949 1528.24453212 -668.73868536 1529.86239894 -667.43115234 1531.48095703 C-663.11174296 1536.81845945 -658.65938312 1541.98982659 -654.03662109 1547.06689453 C-652.18097953 1549.11153663 -650.35968233 1551.17895477 -648.55224609 1553.26611328 C-644.72193397 1557.65996558 -640.78140545 1561.95065813 -636.82958984 1566.23486328 C-635.01540196 1568.20198271 -633.2186886 1570.18061709 -631.43115234 1572.17236328 C-624.25259602 1580.1082413 -616.73398612 1587.69281886 -609.17724609 1595.26611328 C-608.63372498 1595.8122226 -608.09020386 1596.35833191 -607.5302124 1596.92098999 C-602.07631593 1602.39534346 -596.61242123 1607.80679498 -590.73339844 1612.83007812 C-587.59864177 1615.53940958 -584.62131235 1618.41637656 -581.61474609 1621.26611328 C-576.38775949 1626.18605101 -571.06861748 1630.8448601 -565.45849609 1635.32470703 C-562.92586456 1637.39224111 -560.51993449 1639.55224669 -558.11474609 1641.76611328 C-552.55517625 1646.82505835 -546.66098098 1651.40112531 -540.71972656 1655.99707031 C-538.99976332 1657.33471538 -537.29151769 1658.6857025 -535.58740234 1660.04345703 C-525.89452966 1667.75708976 -515.95333721 1675.11736486 -505.92724609 1682.39111328 C-505.23824219 1682.89223633 -504.54923828 1683.39335938 -503.83935547 1683.90966797 C-476.75054491 1703.5417451 -448.19400013 1721.21789373 -418.92724609 1737.39111328 C-417.49106934 1738.18751221 -417.49106934 1738.18751221 -416.02587891 1739 C-341.4192327 1780.26829118 -261.34955281 1809.69147006 250.07275391 1812.39111328 C318.53103379 1792.48467711 385.54169023 1764.11166513 446.71630859 1727.40161133 C449.32100913 1725.84140556 451.93148873 1724.29270661 454.54638672 1722.74975586 C465.66154326 1716.16790967 476.52890227 1709.28867422 487.25537109 1702.09155273 C489.70086479 1700.45152702 492.15203969 1698.82027311 494.60400391 1697.18994141 C508.79346296 1687.7243465 522.79269284 1677.94745241 536.19775391 1667.39111328 C536.92873291 1666.81917236 537.65971191 1666.24723145 538.4128418 1665.65795898 C545.44962938 1660.13333375 552.39682162 1654.49967979 559.31542969 1648.828125 C560.92617274 1647.51097668 562.54403957 1646.20255255 564.16259766 1644.89501953 C569.50010007 1640.57561014 574.67146721 1636.1232503 579.74853516 1631.50048828 C581.79317725 1629.64484671 583.8605954 1627.82354952 585.94775391 1626.01611328 C590.34160621 1622.18580116 594.63229875 1618.24527263 598.91650391 1614.29345703 C600.88362333 1612.47926914 602.86225772 1610.68255579 604.85400391 1608.89501953 C612.78988192 1601.71646321 620.37445949 1594.19785331 627.94775391 1586.64111328 C628.49386322 1586.09759216 629.03997253 1585.55407104 629.60263062 1584.99407959 C635.07698408 1579.54018312 640.48843561 1574.07628842 645.51171875 1568.19726562 C648.2210502 1565.06250896 651.09801719 1562.08517954 653.94775391 1559.07861328 C658.86769164 1553.85162668 663.52650073 1548.53248466 668.00634766 1542.92236328 C670.07388173 1540.38973175 672.23388732 1537.98380168 674.44775391 1535.57861328 C679.50669898 1530.01904344 684.08276593 1524.12484817 688.67871094 1518.18359375 C690.01635601 1516.46363051 691.36734313 1514.75538487 692.72509766 1513.05126953 C700.43873038 1503.35839685 707.79900549 1493.4172044 715.07275391 1483.39111328 C715.57387695 1482.70210937 716.075 1482.01310547 716.59130859 1481.30322266 C736.22338573 1454.21441209 753.89953435 1425.65786732 770.07275391 1396.39111328 C770.60368652 1395.43366211 771.13461914 1394.47621094 771.68164062 1393.48974609 C812.94993181 1318.88309989 842.37311069 1238.81342 845.07275391 727.39111328 C825.16631773 658.9328334 796.79330575 591.92217695 760.08325195 530.74755859 C758.52304618 528.14285806 756.97434723 525.53237846 755.43139648 522.91748047 C748.84955029 511.80232393 741.97031485 500.93496492 734.77319336 490.20849609 C733.13316765 487.76300239 731.50191373 485.3118275 729.87158203 482.85986328 C720.40598712 468.67040423 710.62909304 454.67117434 700.07275391 441.26611328 C699.50081299 440.53513428 698.92887207 439.80415527 698.33959961 439.05102539 C692.81497437 432.0142378 687.18132042 425.06704557 681.50976562 418.1484375 C680.1926173 416.53769445 678.88419318 414.91982762 677.57666016 413.30126953 C673.25725077 407.96376712 668.80489093 402.79239998 664.18212891 397.71533203 C662.32648734 395.67068993 660.50519014 393.60327179 658.69775391 391.51611328 C654.86744178 387.12226098 650.92691326 382.83156844 646.97509766 378.54736328 C645.16090977 376.58024385 643.36419641 374.60160947 641.57666016 372.60986328 C634.39810383 364.67398527 626.87949393 357.0894077 619.32275391 349.51611328 C618.77923279 348.97000397 618.23571167 348.42389465 617.67572021 347.86123657 C612.22182374 342.3868831 606.75792905 336.97543158 600.87890625 331.95214844 C597.74414959 329.24281698 594.76682016 326.36585 591.76025391 323.51611328 C586.5332673 318.59617555 581.21412529 313.93736646 575.60400391 309.45751953 C573.07137238 307.38998546 570.6654423 305.22997987 568.26025391 303.01611328 C562.70068406 297.95716821 556.80648879 293.38110126 550.86523438 288.78515625 C549.14527114 287.44751118 547.4370255 286.09652406 545.73291016 284.73876953 C536.04003747 277.0251368 526.09884503 269.6648617 516.07275391 262.39111328 C515.38375 261.88999023 514.69474609 261.38886719 513.98486328 260.87255859 C486.89605272 241.24048146 458.33950794 223.56433284 429.07275391 207.39111328 C428.11530273 206.86018066 427.15785156 206.32924805 426.17138672 205.78222656 C351.56474051 164.51393538 271.49506062 135.0907565 -436.57080078 217.38061523 Z " fill="#CDD6F4" transform="translate(994.92724609375,27.60888671875)"/>
<path d="M0 0 C0.70503662 0.00093658 1.41007324 0.00187317 2.13647461 0.00283813 C13.34086613 0.03499642 24.36640087 0.34344813 35.4375 2.1875 C36.80382568 2.41348877 36.80382568 2.41348877 38.19775391 2.64404297 C81.12887065 10.04939384 119.70013825 31.51690403 145.4375 67.125 C168.88471449 100.61722726 180.44671333 143.14039925 180.640625 183.8203125 C180.64763931 184.80708481 180.65465363 185.79385712 180.66188049 186.81053162 C180.67929397 189.9779013 180.68573272 193.1450842 180.6875 196.3125 C180.68817474 197.392966 180.68884949 198.47343201 180.68954468 199.5866394 C180.67421592 215.00378563 180.38308939 230.00837495 177.4375 245.1875 C177.26589355 246.12625977 177.09428711 247.06501953 176.91748047 248.03222656 C168.59312559 292.89001023 147.3644066 335.24311031 109.2902832 361.86328125 C76.77926834 384.00281542 39.7653984 392.680948 0.8125 392.5 C-0.010224 392.49817719 -0.832948 392.49635437 -1.68060303 392.49447632 C-49.64352469 392.31657832 -94.5694576 378.45761532 -128.93457031 343.87060547 C-169.24584825 302.19304847 -180.55717804 242.67545086 -179.65576172 186.69824219 C-178.30491722 135.84707999 -162.5136492 87.38254286 -128.5625 49.1875 C-127.94375 48.48367188 -127.325 47.77984375 -126.6875 47.0546875 C-94.39538005 12.6001488 -45.68019818 -0.07884727 0 0 Z M-49.54296875 100.76171875 C-76.16093162 132.73416545 -77.10070895 182.89821362 -73.75 222.1875 C-71.23056704 248.791004 -65.84415314 280.03524396 -44.8125 298.6171875 C-27.59878024 312.28954304 -6.87055349 315.19493875 14.48828125 312.7890625 C31.33319071 310.0497636 45.12573893 301.48405981 55.625 288.125 C70.91466742 266.03992483 75.50932734 236.28980716 75.640625 209.95703125 C75.64763931 209.01187149 75.65465363 208.06671173 75.66188049 207.09291077 C75.67928093 204.06189149 75.68573186 201.03106738 75.6875 198 C75.68817474 196.96627258 75.68884949 195.93254517 75.68954468 194.86749268 C75.67420534 180.1058867 75.47070532 165.69066028 72.4375 151.1875 C72.26589355 150.3320459 72.09428711 149.4765918 71.91748047 148.59521484 C67.63786892 127.87026848 59.58097932 105.0737043 41.49023438 92.55908203 C14.6396198 74.92291184 -26.9738331 76.56597873 -49.54296875 100.76171875 Z " fill="#CDD6F4" transform="translate(519.5625,800.8125)"/>
<path d="M0 0 C1.77474764 1.77474764 1.13197626 4.14885366 1.14593023 6.5135451 C1.14535103 7.71026824 1.14535103 7.71026824 1.14476013 8.9311676 C1.14828698 9.77263444 1.15181382 10.61410128 1.15544754 11.48106712 C1.16619132 14.32405342 1.16982561 17.16700627 1.17358398 20.01000977 C1.17988585 22.0401575 1.18665124 24.07030385 1.19384766 26.10044861 C1.20855706 30.48806533 1.22026671 34.87567658 1.22979546 39.26330757 C1.24524208 46.22202676 1.26919919 53.18070035 1.29469299 60.13938904 C1.36588506 79.93379827 1.42533811 99.72823516 1.47680664 119.52270508 C1.50527884 130.44370868 1.54076347 141.36466844 1.58346039 152.28562587 C1.60999506 159.17917549 1.62804697 166.07267548 1.63949764 172.9662658 C1.64874466 177.29734391 1.66616281 181.62836303 1.68567657 185.9594059 C1.69303586 187.94082441 1.69722593 189.92225821 1.69767189 191.90369034 C1.70200227 202.56661921 2.04134326 213.13780631 2.90565491 223.7686615 C2.98453207 224.74733612 3.06340924 225.72601073 3.14467663 226.73434216 C4.95449981 247.19193774 10.33650593 268.67435241 25.77734375 283.22265625 C35.81047888 291.24563777 48.41770682 295.32932207 61 297 C61.88042969 297.12375 62.76085938 297.2475 63.66796875 297.375 C71.26131345 298.1947943 78.81522953 297.99027879 86.4375 297.75 C87.44176025 297.72381592 88.44602051 297.69763184 89.48071289 297.6706543 C100.53021395 297.23513404 110.87656556 295.51683197 122 294 C122 197.31 122 100.62 122 1 C131.01222142 -1.25305536 131.01222142 -1.25305536 134.12109375 -1.59765625 C134.81984619 -1.6764502 135.51859863 -1.75524414 136.23852539 -1.83642578 C136.96418701 -1.91103027 137.68984863 -1.98563477 138.4375 -2.0625 C139.60430298 -2.1860083 139.60430298 -2.1860083 140.79467773 -2.31201172 C167.98664058 -5.08698216 197.15489144 -5.73531045 224 0 C225 1 225 1 225.1241985 3.43252903 C225.12381878 4.52574386 225.12343906 5.61895869 225.12304783 6.74530125 C225.12503888 8.0013147 225.12702993 9.25732816 225.12908131 10.55140263 C225.12622771 11.96335084 225.12328211 13.37529886 225.12025452 14.7872467 C225.12069009 16.27303808 225.12156473 17.75882938 225.12284368 19.24462026 C225.12509142 23.3469372 225.12106357 27.44922828 225.11606562 31.55154192 C225.11176528 35.96806187 225.11320725 40.38458024 225.1139679 44.80110168 C225.1144934 52.45949209 225.11134388 60.11787401 225.10573006 67.77626228 C225.09761858 78.84913913 225.0950002 89.92201185 225.09374207 100.99489134 C225.09155099 118.95794096 225.0848894 136.92098605 225.07543945 154.8840332 C225.06626677 172.33813453 225.05918523 189.79223464 225.05493164 207.24633789 C225.05453756 208.85892142 225.05453756 208.85892142 225.05413551 210.50408239 C225.05283051 215.8970774 225.0515668 221.29007242 225.05032361 226.68306744 C225.03994927 271.45538143 225.02232945 316.22769048 225 361 C223.41645613 361.64412793 221.83182645 362.28558687 220.24674988 362.92593384 C219.36442782 363.28343531 218.48210577 363.64093678 217.57304668 364.00927162 C214.15914316 365.32376433 210.78761608 366.25184476 207.23828125 367.1484375 C206.18731262 367.41539429 206.18731262 367.41539429 205.1151123 367.68774414 C202.84971318 368.25917147 200.5815826 368.81839146 198.3125 369.375 C197.52676605 369.56942688 196.7410321 369.76385376 195.93148804 369.96417236 C171.88439064 375.89745016 147.69718358 380.74028959 123 383 C122.00863037 383.0942627 121.01726074 383.18852539 119.99584961 383.28564453 C108.57565599 384.24368283 97.14098096 384.24257105 85.6875 384.25 C84.60784973 384.25100708 83.52819946 384.25201416 82.41583252 384.25305176 C32.6365431 384.22178625 -20.29368762 380.07823327 -58 344 C-58.67417969 343.38898438 -59.34835937 342.77796875 -60.04296875 342.1484375 C-86.97874116 316.87934961 -96.99915931 277.35601271 -101 242 C-101.08950141 241.23142292 -101.17900282 240.46284584 -101.27121639 239.67097855 C-102.33407503 229.0094541 -102.13231854 218.31740688 -102.11352539 207.61621094 C-102.11324296 205.35831198 -102.11340234 203.10041294 -102.1139679 200.84251404 C-102.1142537 194.74217141 -102.10839202 188.64184862 -102.10139394 182.54151058 C-102.0951243 176.15538065 -102.09455375 169.76925021 -102.09336853 163.38311768 C-102.09061791 152.67386468 -102.08438026 141.96462032 -102.07543945 131.25537109 C-102.06624462 120.23030635 -102.05917394 109.20524359 -102.05493164 98.18017578 C-102.05466892 97.49930648 -102.05440619 96.81843717 -102.05413551 96.11693546 C-102.05283036 92.70083077 -102.05156668 89.28472606 -102.05032361 85.86862135 C-102.03997587 57.57907592 -102.02230445 29.28953835 -102 1 C-94.29648933 -1.23287684 -94.29648933 -1.23287684 -91.01171875 -1.59765625 C-90.3148999 -1.6764502 -89.61808105 -1.75524414 -88.90014648 -1.83642578 C-87.80488647 -1.94833252 -87.80488647 -1.94833252 -86.6875 -2.0625 C-85.90769775 -2.14483887 -85.12789551 -2.22717773 -84.32446289 -2.31201172 C-56.79705154 -5.1009259 -27.17568834 -5.80593701 0 0 Z " fill="#CDD6F4" transform="translate(1208,809)"/>
<path d="M0 0 C0.26362254 7.74804584 -0.38326709 14.91136104 -1.9375 22.5 C-2.2614978 24.09666504 -2.2614978 24.09666504 -2.59204102 25.72558594 C-6.28820064 42.92506543 -11.79015592 60.38519851 -20 76 C-25.81225267 74.30414994 -31.56051591 72.48906933 -37.27905273 70.50073242 C-45.41513383 67.68834706 -53.56419953 65.19364333 -61.9375 63.1875 C-62.73969971 62.9930127 -63.54189941 62.79852539 -64.3684082 62.59814453 C-76.16264553 59.87998342 -87.86337215 58.64518649 -99.95898438 58.68432617 C-101.9992367 58.68749881 -104.03804869 58.66385498 -106.078125 58.63867188 C-120.53997986 58.5697676 -137.33571426 60.48066799 -148.3046875 70.89453125 C-153.20397923 76.9791355 -154.71919352 84.55753961 -154.37890625 92.23046875 C-153.52207233 98.4933064 -151.83552526 104.73374865 -147.1875 109.25 C-131.11018904 120.95775134 -109.52325542 125.26461055 -90.69921875 130.703125 C-65.19963979 138.08240091 -39.70108568 145.58282149 -19 163 C-18.09894531 163.70189453 -18.09894531 163.70189453 -17.1796875 164.41796875 C1.44345394 179.32483308 9.30073494 203.12599938 12.3984375 225.93359375 C12.70907131 228.96017455 12.88237246 231.95950634 13 235 C13.02723145 235.6801416 13.05446289 236.3602832 13.08251953 237.06103516 C14.18238905 268.79123311 5.30391925 299.15800924 -16.4453125 322.8203125 C-40.63687999 348.24951353 -72.78787035 362.58755579 -107 369 C-107.86141602 369.16371094 -108.72283203 369.32742188 -109.61035156 369.49609375 C-124.74301675 372.19775732 -139.92669203 372.28466209 -155.25 372.3125 C-156.21815643 372.31617584 -157.18631287 372.31985168 -158.18380737 372.32363892 C-175.61584351 372.35815268 -193.00202286 371.39676982 -210.1875 368.3125 C-211.11981445 368.14661377 -212.05212891 367.98072754 -213.01269531 367.80981445 C-231.53845721 364.34580952 -249.495017 358.93872218 -267 352 C-264.71186693 324.64485685 -257.85727967 297.8161229 -246 273 C-241.8991658 273.59254478 -238.18421443 274.50794284 -234.28125 275.890625 C-232.65159302 276.45704712 -232.65159302 276.45704712 -230.98901367 277.03491211 C-229.83763916 277.43589111 -228.68626465 277.83687012 -227.5 278.25 C-191.20461973 290.60957206 -145.66217718 299.30856105 -109.5625 281.6875 C-100.51616735 276.87844506 -93.97425109 271.65418934 -90 262 C-87.55914675 252.37650851 -88.22307294 241.86071021 -93.04296875 233.10546875 C-107.10551283 213.93713944 -143.82397313 209.45039228 -165.3840332 203.33691406 C-178.68726094 199.54096521 -191.99024416 195.46153873 -204.3125 189.0625 C-204.97290283 188.72387939 -205.63330566 188.38525879 -206.3137207 188.03637695 C-228.94693404 176.25851427 -246.23277033 160.20828677 -254.3125 135.375 C-263.24091316 103.85846465 -260.19997344 69.42352585 -245.1875 40.375 C-242.02584086 34.747085 -238.1856248 29.89518786 -234 25 C-233.39542969 24.24976563 -232.79085937 23.49953125 -232.16796875 22.7265625 C-208.91988112 -5.17114266 -169.9264943 -16.18824218 -135.1953125 -19.49609375 C-89.57062584 -23.10608501 -42.69275923 -16.57303891 0 0 Z " fill="#CDD6F4" transform="translate(1025,821)"/>
<path d="M0 0 C21.33932139 -0.49178386 43.52294777 0.27159065 64.56982422 4.06640625 C65.56982422 5.06640625 65.56982422 5.06640625 65.6387825 7.93354607 C65.61225979 9.2313154 65.58573708 10.52908474 65.55841064 11.86618042 C65.54505145 12.58802076 65.53169226 13.3098611 65.51792824 14.0535754 C65.47140402 16.49921718 65.41753833 18.94464423 65.36376953 21.39013672 C65.32887713 23.14469175 65.29443221 24.89925573 65.26040077 26.65382767 C65.16551625 31.47895919 65.06426417 36.30393969 64.96201849 41.12892008 C64.854031 46.27751229 64.75195524 51.42622184 64.64920044 56.57492065 C64.44886243 66.56621927 64.24317008 76.5574005 64.03544986 86.5485481 C63.79623622 98.05911858 63.56115062 109.56977201 63.32647395 121.08043575 C63.20846627 126.868486 63.09033159 132.65653364 62.97213745 138.44458008 C62.94868952 139.59295522 62.92524159 140.74133037 62.90108311 141.92450476 C62.75809805 148.92229981 62.61434875 155.92007874 62.47001994 162.9178462 C61.9062331 190.25347976 61.36167201 217.58933675 60.8532238 244.92605698 C60.73833154 251.09969004 60.62181993 257.2732905 60.50402832 263.4468689 C60.4798669 264.7134943 60.4798669 264.7134943 60.45521736 266.0057081 C60.37595359 270.15800346 60.2964833 274.31029481 60.21687317 278.46258354 C60.04988292 287.18950342 59.88842013 295.91649348 59.73359931 304.64363778 C59.62857391 310.53485298 59.51682306 316.42591585 59.39960992 322.31690109 C59.33324255 325.66361188 59.27099853 329.01026285 59.21509171 332.35717392 C59.15493191 335.93723705 59.08334039 339.5168917 59.00878906 343.09667969 C58.98690962 344.65082738 58.98690962 344.65082738 58.96458817 346.23637199 C58.84837965 351.22309556 58.53311824 355.39439609 56.56982422 360.06640625 C-16.78280172 370.89009328 -16.78280172 370.89009328 -40.43017578 359.06640625 C-42.71854664 346.26934882 -41.79521577 332.31516772 -42.05349934 319.35936677 C-42.12385917 315.86919325 -42.19834492 312.37910722 -42.27226257 308.88900757 C-42.41622413 302.05990707 -42.55632911 295.23073279 -42.69496734 288.40152235 C-42.80818032 282.82729267 -42.9227095 277.25309147 -43.03814507 271.67890739 C-43.05466174 270.88119339 -43.07117842 270.08347938 -43.0881956 269.26159222 C-43.1217746 267.63992204 -43.15535507 266.01825188 -43.188937 264.39658176 C-43.50339159 249.20278635 -43.81329344 234.0089006 -44.12175297 218.81498247 C-44.40170544 205.03179492 -44.68707774 191.24872616 -44.97514374 177.465706 C-45.27271125 163.2258252 -45.56658709 148.9858724 -45.85664839 134.74583668 C-46.01881752 126.78724857 -46.18229714 118.82869336 -46.34956551 110.87021065 C-46.95454006 82.03737027 -47.54468172 53.20745567 -47.57250977 24.36694336 C-47.57466622 23.36064223 -47.57682266 22.35434111 -47.57904446 21.31754601 C-47.58308662 18.56096665 -47.57968896 15.80452935 -47.57273865 13.04795837 C-47.57383302 12.24188719 -47.57492739 11.43581601 -47.57605493 10.60531843 C-47.54617572 5.18240619 -47.54617572 5.18240619 -46.43017578 4.06640625 C-44.72018827 3.77836073 -43.00002707 3.55031795 -41.27783203 3.34765625 C-40.20049805 3.22044189 -39.12316406 3.09322754 -38.01318359 2.9621582 C-36.85141602 2.83156006 -35.68964844 2.70096191 -34.49267578 2.56640625 C-33.30641602 2.43258545 -32.12015625 2.29876465 -30.89794922 2.16088867 C-20.59019829 1.03055484 -10.36191917 0.28314668 0 0 Z " fill="#CDD6F4" transform="translate(1575.43017578125,658.93359375)"/>
<path d="M0 0 C0.89569702 -0.00200409 1.79139404 -0.00400818 2.7142334 -0.006073 C20.37286605 -0.01570384 38.22110035 0.61926678 55.5625 4.25 C56.04840046 7.64490379 56.52489751 11.04106964 57 14.4375 C57.13470703 15.37787109 57.26941406 16.31824219 57.40820312 17.28710938 C59.25939619 30.60666922 59.79649253 43.82259764 59.8125 57.25 C59.81550613 58.48375366 59.81550613 58.48375366 59.818573 59.74243164 C59.8290308 77.40203787 58.54037388 94.82261519 55.5625 112.25 C19.33227744 117.03478402 -16.21084079 117.7072211 -52.4375 112.25 C-52.92321334 108.54249477 -53.3997879 104.83386466 -53.875 101.125 C-54.00970703 100.09761719 -54.14441406 99.07023437 -54.28320312 98.01171875 C-55.9239601 85.12577372 -56.65579176 72.30068225 -56.6875 59.3125 C-56.68950409 58.63744415 -56.69150818 57.96238831 -56.693573 57.26687622 C-56.70626575 39.51955974 -55.12232934 21.7926228 -52.4375 4.25 C-49.18839434 3.76464315 -45.93807271 3.2879239 -42.6875 2.8125 C-41.78644531 2.67779297 -40.88539062 2.54308594 -39.95703125 2.40429688 C-26.62483578 0.46592803 -13.45029176 0.01464871 0 0 Z " fill="#CDD6F4" transform="translate(1582.4375,1072.75)"/>
</svg>
