<svg xmlns="http://www.w3.org/2000/svg" width="225" height="225" version="1.1"><path fill="#cdd6f4" d="M0 0 C7.69758832 6.91192924 14.33134088 14.31216375 20 23 C20.59296875 23.89847656 21.1859375 24.79695313 21.796875 25.72265625 C37.16069758 50.43393726 41.9239602 80.50354419 35.84130859 108.86328125 C32.98414948 120.9607692 28.53693513 132.39872932 22 143 C21.42378906 143.96679688 20.84757813 144.93359375 20.25390625 145.9296875 C10.51631643 161.15297607 -3.11577902 174.37438667 -19 183 C-19.99128906 183.556875 -20.98257813 184.11375 -22.00390625 184.6875 C-29.66910871 188.77016442 -37.67973281 191.59352272 -46 194 C-47.65322266 194.48339844 -47.65322266 194.48339844 -49.33984375 194.9765625 C-76.64004567 201.66870822 -105.92028999 196.378667 -130.38671875 183.171875 C-133.01489661 181.5443841 -135.5145994 179.83666892 -138 178 C-138.76054687 177.45859375 -139.52109375 176.9171875 -140.3046875 176.359375 C-146.44327741 171.81384475 -151.68978348 166.468468 -157 161 C-157.85207031 160.17113281 -158.70414063 159.34226563 -159.58203125 158.48828125 C-178.78174207 138.73025897 -187.39147857 109.64180602 -187.37304688 82.70849609 C-187.08386956 67.96294576 -184.20148925 53.41933368 -178 40 C-177.4740625 38.84113281 -176.948125 37.68226562 -176.40625 36.48828125 C-170.75635864 24.42702687 -163.07503458 14.65890629 -154 5 C-153.484375 4.40832031 -152.96875 3.81664063 -152.4375 3.20703125 C-139.06341002 -11.45570803 -118.96171424 -20.45784031 -100 -25 C-99.15824219 -25.21269531 -98.31648438 -25.42539062 -97.44921875 -25.64453125 C-63.40967046 -33.81637445 -26.10922305 -22.66624858 0 0 Z M-136.1875 35.875 C-136.87134766 36.02324219 -137.55519531 36.17148438 -138.25976562 36.32421875 C-142.86211843 37.41180644 -146.26624589 39.11044826 -150 42 C-151.87449615 45.7489923 -151.65855233 49.92720547 -151 54 C-149.30063151 56.84064179 -148.08271556 57.34854524 -145 59 C-138.85065323 59.86306621 -133.43206191 58.24383234 -127.453125 56.796875 C-90.96621532 48.37681892 -42.97122811 51.62744015 -10.2578125 71.1875 C-5.83225306 73.64968175 -3.96335193 73.64043251 1 73 C3.8100346 71.20636089 5.50940468 69.98119065 7 67 C7.3581129 61.53877823 7.47943278 58.47054394 4 54 C1.59302358 52.48945494 -0.63414821 51.25641711 -3.1875 50.0625 C-3.89583984 49.72186523 -4.60417969 49.38123047 -5.33398438 49.03027344 C-17.85181466 43.1255321 -30.52854783 39.07322165 -44 36 C-44.78246094 35.79632813 -45.56492187 35.59265625 -46.37109375 35.3828125 C-59.89916023 31.95464751 -74.2101671 31.66797675 -88.08666992 31.73925781 C-90.5651891 31.75001167 -93.04298634 31.73926148 -95.52148438 31.7265625 C-109.21438426 31.71386531 -122.83790779 32.62816451 -136.1875 35.875 Z M-142.83984375 78.9140625 C-144.61013262 82.09700613 -144.43891784 84.42595475 -144 88 C-142.13891016 91.29269741 -141.04353204 92.70140365 -137.37890625 93.75 C-133.11223824 94.06568411 -129.66374701 93.22011636 -125.5625 92.125 C-124.10623782 91.74960797 -122.64920941 91.37717503 -121.19140625 91.0078125 C-120.55404541 90.83910645 -119.91668457 90.67040039 -119.26000977 90.49658203 C-87.55090388 83.5292793 -51.29339907 90.39035842 -23.125 105.625 C-19.72439177 107.42246435 -17.67194263 108.47238775 -13.875 107.5 C-10.96422524 106.16410963 -10.96422524 106.16410963 -9 104 C-8.56743322 101.96773426 -8.56743322 101.96773426 -8.5625 99.6875 C-8.52253906 98.92824219 -8.48257813 98.16898438 -8.44140625 97.38671875 C-9.28771323 93.77067982 -11.18335813 92.36161695 -14 90 C-16.41423521 88.55646535 -18.72915163 87.27727346 -21.25 86.0625 C-21.95326416 85.72114014 -22.65652832 85.37978027 -23.38110352 85.02807617 C-49.1546867 72.8059943 -119.24630231 54.36876461 -142.83984375 78.9140625 Z M-138 114 C-139.8010962 116.97572416 -140.16642792 118.28435995 -139.375 121.6875 C-137.75759276 124.40768491 -136.95100857 124.95579697 -134 126 C-131.14444971 125.87851212 -131.14444971 125.87851212 -128.0625 125.25 C-127.04285156 125.06953125 -126.02320313 124.8890625 -124.97265625 124.703125 C-124.37718994 124.59758301 -123.78172363 124.49204102 -123.16821289 124.38330078 C-122.45270264 124.25681152 -121.73719238 124.13032227 -121 124 C-120.07243896 123.83097168 -119.14487793 123.66194336 -118.18920898 123.48779297 C-109.74143442 122.05083706 -101.49996765 121.61377719 -92.9375 121.625 C-92.26390442 121.62521149 -91.59030884 121.62542297 -90.89630127 121.62564087 C-70.45843739 121.68934879 -52.73766488 125.93344512 -34.75390625 135.86328125 C-31.58031254 137.1732327 -29.4032026 137.35108693 -26 137 C-22.89525323 135.38450174 -22.89525323 135.38450174 -22.390625 133.046875 C-22.17728363 129.56229927 -22.09485611 127.04626847 -24.453125 124.3203125 C-26.87696536 122.60882217 -29.33478619 121.3081874 -32 120 C-33.12921875 119.42378906 -34.2584375 118.84757813 -35.421875 118.25390625 C-53.0003183 109.72295479 -72.06243172 106.75631974 -91.4375 106.6875 C-92.16432983 106.68454926 -92.89115967 106.68159851 -93.64001465 106.67855835 C-117.0019232 106.02727072 -117.0019232 106.02727072 -138 114 Z" transform="translate(187,28)"/></svg>