<?xml version="1.0" encoding="UTF-8"?>
<svg version="1.1" xmlns="http://www.w3.org/2000/svg" width="496" height="503">
<path d="M0 0 C0.50289551 0.48339844 1.00579102 0.96679688 1.52392578 1.46484375 C3.74234735 3.59175149 5.98870956 5.61332634 8.33251953 7.59765625 C17.56986662 15.62674275 25.73912102 24.46293022 33.27001953 34.09765625 C34.03572266 35.03480469 34.80142578 35.97195312 35.59033203 36.9375 C74.56575181 85.625444 87.45547764 143.06868117 86.30712891 204.08154297 C86.27424519 205.86808077 86.24819123 207.6547414 86.22314453 209.44140625 C85.60804166 247.16771562 75.16794256 286.20993094 55.30224609 318.42138672 C54.29839293 320.05157968 53.32663912 321.70140295 52.35595703 323.3515625 C37.26195316 348.66352372 18.06014804 372.05235772 -5.63232422 389.765625 C-8.2665354 391.7487575 -10.73742587 393.81898206 -13.22998047 395.97265625 C-26.12462696 406.31390739 -41.73945764 414.20760228 -56.72998047 421.09765625 C-57.91793213 421.64631348 -57.91793213 421.64631348 -59.12988281 422.20605469 C-76.81571406 430.28848973 -94.79302248 435.84036901 -113.83056641 439.71142578 C-115.47899943 440.04662129 -117.12433939 440.39695951 -118.76904297 440.75 C-147.08638916 446.47194163 -180.47539269 444.89216361 -208.72998047 440.09765625 C-209.90979492 439.90429688 -211.08960938 439.7109375 -212.30517578 439.51171875 C-227.69686728 436.91098444 -241.46590679 433.32686156 -255.38818359 426.24902344 C-257.75904403 425.08336687 -260.15395429 424.03505372 -262.58935547 423.01171875 C-288.95024169 411.90114744 -319.8576573 394.07070881 -337.72998047 371.09765625 C-338.49310547 370.52015625 -339.25623047 369.94265625 -340.04248047 369.34765625 C-343.17480884 366.7252418 -345.34514354 363.81864844 -347.78857422 360.5625 C-349.75039481 358.07173784 -351.85216008 355.82591461 -354.04248047 353.53515625 C-359.36583231 347.68216232 -363.26633539 341.17419075 -367.31738281 334.41796875 C-368.82320444 331.94452791 -370.37464627 329.50449543 -371.93701172 327.06640625 C-381.35509991 312.29860173 -388.83725159 297.08303499 -395.44091797 280.8828125 C-396.60746182 278.1015098 -396.60746182 278.1015098 -398.34326172 275.97265625 C-400.68764798 272.80278186 -400.54438989 269.99505844 -400.72998047 266.09765625 C-400.06998047 265.10765625 -399.40998047 264.11765625 -398.72998047 263.09765625 C-397.27070683 263.18769654 -395.81254964 263.29579313 -394.35498047 263.41015625 C-393.54287109 263.46816406 -392.73076172 263.52617187 -391.89404297 263.5859375 C-383.89382531 264.87979986 -376.75475491 267.81693336 -369.54248047 271.41015625 C-363.9585077 274.12324222 -358.39453197 276.71860839 -352.60498047 278.97265625 C-345.67216376 281.67336178 -338.85536128 284.60768664 -332.04248047 287.59765625 C-331.00913574 288.04866699 -329.97579102 288.49967773 -328.91113281 288.96435547 C-325.83933707 290.3181359 -322.78383802 291.70393642 -319.72998047 293.09765625 C-318.65280762 293.57074219 -317.57563477 294.04382813 -316.46582031 294.53125 C-310.17447403 297.43302403 -305.8659025 299.80939375 -302.72998047 306.09765625 C-302.39901367 306.75862305 -302.06804687 307.41958984 -301.72705078 308.10058594 C-300.72636716 310.20765223 -299.78725149 312.33453906 -298.85498047 314.47265625 C-295.85452752 321.09017161 -292.57781684 326.63660907 -287.72998047 332.09765625 C-287.26205078 332.70609375 -286.79412109 333.31453125 -286.31201172 333.94140625 C-276.32470566 346.69830138 -259.23264352 353.32431552 -243.72998047 356.09765625 C-225.85577837 357.81666685 -207.03854035 352.71934374 -193.04248047 341.19140625 C-189.75946772 338.31859841 -186.72634274 335.26746931 -183.72998047 332.09765625 C-182.81152344 331.13279297 -182.81152344 331.13279297 -181.87451172 330.1484375 C-173.29758036 319.91590545 -168.97415204 306.9591392 -167.7409668 293.87402344 C-166.69500028 283.5871249 -160.40553612 278.40115662 -152.72998047 272.09765625 C-144.40309876 265.62392354 -135.69622691 259.63943327 -127.06762695 253.57885742 C-122.41417882 250.30553947 -117.80753129 246.97613612 -113.22998047 243.59765625 C-107.77605272 239.58309149 -102.30259823 235.59733321 -96.79248047 231.66015625 C-96.10669922 231.16386719 -95.42091797 230.66757812 -94.71435547 230.15625 C-86.27952955 224.16179119 -79.26671631 221.51687682 -68.97998047 220.09765625 C-43.65456004 216.17700039 -21.45444087 204.90416659 -5.72998047 184.09765625 C-2.79840506 179.55425525 -0.21650958 174.89530505 2.27001953 170.09765625 C2.82818359 169.05738281 3.38634766 168.01710937 3.96142578 166.9453125 C14.85570582 145.29327222 15.3391277 121.8836037 8.27001953 99.09765625 C2.51238 82.76281823 -6.2861787 68.13396869 -19.72998047 57.09765625 C-20.51888672 56.38738281 -21.30779297 55.67710938 -22.12060547 54.9453125 C-43.39676939 36.3127438 -68.57417517 33.83890045 -95.72998047 35.09765625 C-114.58927949 36.897434 -134.87573647 50.36883554 -146.83544922 64.6953125 C-147.77324219 65.88447266 -147.77324219 65.88447266 -148.72998047 67.09765625 C-149.46861328 68.02449219 -150.20724609 68.95132813 -150.96826172 69.90625 C-153.30006194 72.91995482 -155.52363338 75.991247 -157.72998047 79.09765625 C-158.36162109 79.9175 -158.99326172 80.73734375 -159.64404297 81.58203125 C-167.68243003 93.26779218 -169.13522804 108.87332477 -171.52294922 122.57421875 C-173.03200297 130.8237126 -175.86130679 136.31433562 -180.72998047 143.09765625 C-181.96023371 144.92405389 -183.17415886 146.76068724 -184.38745117 148.59838867 C-185.66183877 150.52662 -186.9463168 152.44773865 -188.23388672 154.3671875 C-189.83395506 156.75464003 -191.42575306 159.14713024 -193.00732422 161.546875 C-193.69955078 162.59488281 -194.39177734 163.64289063 -195.10498047 164.72265625 C-195.71083984 165.64304688 -196.31669922 166.5634375 -196.94091797 167.51171875 C-198.72998047 170.09765625 -198.72998047 170.09765625 -200.83935547 172.69140625 C-202.89234147 175.30429753 -204.10564115 177.81399512 -205.40966797 180.83984375 C-207.0117145 183.57943812 -208.99947485 185.7649605 -211.08935547 188.14404297 C-214.47823028 192.17942634 -217.34945373 196.60892694 -220.31787109 200.95703125 C-226.764604 210.26434551 -232.86607051 215.8601152 -244.18310547 217.97387695 C-245.22982422 218.15909912 -246.27654297 218.34432129 -247.35498047 218.53515625 C-255.12722571 220.00934335 -262.11668679 221.50739913 -269.16748047 225.1796875 C-276.57951474 227.83491319 -282.84384396 225.35271272 -289.79248047 222.59765625 C-290.80197754 222.20819824 -291.81147461 221.81874023 -292.8515625 221.41748047 C-315.41129492 212.62861919 -337.75766671 203.25920803 -360.03076172 193.77148438 C-366.52549827 191.01037567 -373.04780335 188.33190501 -379.60498047 185.72265625 C-380.41950684 185.3973291 -381.2340332 185.07200195 -382.07324219 184.73681641 C-385.50153545 183.37020418 -388.93310679 182.02031617 -392.38232422 180.70703125 C-405.02898515 175.76717358 -405.02898515 175.76717358 -407.72998047 171.09765625 C-415.16386259 136.26757919 -391.17026398 87.93899736 -373.54248047 59.484375 C-371.67042385 56.63477268 -369.72607651 53.86148153 -367.72998047 51.09765625 C-366.95338632 49.9765428 -366.17875156 48.85407034 -365.40576172 47.73046875 C-359.64958251 39.42918788 -353.39763095 31.6807679 -346.72998047 24.09765625 C-345.94494141 23.20046875 -345.15990234 22.30328125 -344.35107422 21.37890625 C-336.95728278 13.04642477 -329.31169917 5.36899117 -320.60107422 -1.58984375 C-317.67327891 -3.94801357 -314.83146878 -6.39024305 -311.97998047 -8.83984375 C-295.34503616 -22.64557118 -275.68178243 -33.6701496 -255.72998047 -41.90234375 C-255.07626465 -42.17353027 -254.42254883 -42.4447168 -253.74902344 -42.72412109 C-172.22654767 -76.02620997 -64.60263395 -61.47765105 0 0 Z " fill="#cdd6f4" transform="translate(408.72998046875,58.90234375)"/>
<path d="M0 0 C1.0725 0.49757813 2.145 0.99515625 3.25 1.5078125 C14.52981926 7.12161144 23.13199592 15.25941095 31 25 C31.72703125 25.87011719 32.4540625 26.74023438 33.203125 27.63671875 C42.91736249 40.44343832 41.90173094 57.24059913 40.33642578 72.59814453 C38.15793464 88.15111683 27.98412618 103.07157015 16 113 C1.4227843 122.90096841 -17.76499297 125.94719613 -34.8125 123 C-51.68922795 118.86959371 -62.67078004 109.8801429 -74 97 C-74.79792969 96.09894531 -75.59585937 95.19789063 -76.41796875 94.26953125 C-84.87396354 83.50571698 -86.93688592 67.33007869 -86 54 C-85.23750014 48.93594921 -84.20581939 43.97612791 -83 39 C-82.72736328 37.87271484 -82.72736328 37.87271484 -82.44921875 36.72265625 C-77.85074161 21.9261958 -64.82951172 10.56298185 -52 3 C-36.11652558 -5.13543812 -16.68738177 -8.19816139 0 0 Z M-51 24 C-51.88945312 24.75216797 -51.88945312 24.75216797 -52.796875 25.51953125 C-58.23828873 30.46736542 -61.6345828 36.52200783 -65 43 C-65.35320312 43.67933594 -65.70640625 44.35867187 -66.0703125 45.05859375 C-70.33053595 54.67511755 -69.69753195 65.29070239 -66.21484375 74.9765625 C-65.81394531 75.97429687 -65.41304688 76.97203125 -65 78 C-64.67128906 78.87398438 -64.34257812 79.74796875 -64.00390625 80.6484375 C-58.86240222 92.5887802 -48.78585635 100.23473092 -37 105 C-32.38275296 106.53908235 -27.77470555 106.26695193 -22.9375 106.3125 C-21.93783203 106.34150391 -20.93816406 106.37050781 -19.90820312 106.40039062 C-9.27558405 106.49020482 -0.14388106 102.86025707 8 96 C14.74874815 89.18497936 18.9695424 82.06590678 22 73 C22.36738281 71.90171875 22.36738281 71.90171875 22.7421875 70.78125 C25.97160725 59.63311608 23.57088931 47.71575061 18.19921875 37.61328125 C16.26062894 34.61317236 14.2209287 31.79625499 12 29 C11.47792969 28.32324219 10.95585937 27.64648438 10.41796875 26.94921875 C4.84925092 20.59101181 -4.72947437 15.73393531 -13 14 C-27.36209125 13.12391243 -39.82444272 13.96629314 -51 24 Z " fill="#cdd6f4" transform="translate(352,126)"/>
<path d="M0 0 C14.51804651 7.38821309 24.29433906 19.02485273 29.46166992 34.43579102 C29.78522461 35.33942383 30.1087793 36.24305664 30.44213867 37.17407227 C33.79742704 48.0018369 32.21524022 60.19581106 27.97338867 70.65063477 C19.95690798 85.42001651 8.05015251 95.33135813 -7.53833008 101.43579102 C-20.36608477 105.16932804 -35.6687721 103.14230927 -47.53833008 97.43579102 C-52.84224959 94.34183796 -57.26975293 90.83926676 -61.53833008 86.43579102 C-61.20833008 85.44579102 -60.87833008 84.45579102 -60.53833008 83.43579102 C-52.06909506 79.60447041 -43.71491515 82.07257246 -35.09692383 84.01391602 C-23.70114859 86.45711438 -13.88250634 86.02005599 -3.78833008 79.68579102 C5.44497581 73.05800355 9.79876815 64.93930009 11.96166992 53.87329102 C13.15217643 43.96312875 11.23426877 33.5614642 5.27416992 25.37329102 C4.04524374 24.02147222 2.77450581 22.70627736 1.46166992 21.43579102 C0.88416992 20.83766602 0.30666992 20.23954102 -0.28833008 19.62329102 C-6.08758704 14.38525247 -13.16574863 11.97876137 -20.44335938 9.45117188 C-26.10993526 7.39291863 -29.20094348 5.52427552 -32.53833008 0.43579102 C-32.66333008 -1.81420898 -32.66333008 -1.81420898 -31.53833008 -3.56420898 C-21.03622358 -8.6600137 -9.83470987 -4.76860821 0 0 Z " fill="#cdd6f4" transform="translate(195.538330078125,296.564208984375)"/>
<path d="M0 0 C2.64 0 5.28 0 8 0 C8 0.66 8 1.32 8 2 C3.545 2.495 3.545 2.495 -1 3 C-0.67 2.01 -0.34 1.02 0 0 Z " fill="#cdd6f4" transform="translate(317,122)"/>
</svg>
